<?xml version="1.0" encoding="UTF-8"?>
<svg width="132px" height="108px" viewBox="0 0 132 108" version="1.1" xmlns="http://www.w3.org/2000/svg" xmlns:xlink="http://www.w3.org/1999/xlink">
    <title>Third Party Policy</title>
    <defs>
        <polygon id="path-1" points="0 7.10542736e-15 125.7549 7.10542736e-15 125.7549 1.68 0 1.68"></polygon>
        <polygon id="path-3" points="0 0 41 0 41 46 0 46"></polygon>
        <polygon id="path-5" points="0 0 7.9677676 0 7.9677676 12.2808163 0 12.2808163"></polygon>
        <polygon id="path-7" points="0 0 7.9682679 0 7.9682679 12.2808163 0 12.2808163"></polygon>
        <polygon id="path-9" points="4.80710086 49.9997369 65.8071009 49.9997369 65.8071009 7.99973687 4.80710086 7.99973687"></polygon>
    </defs>
    <g id="Third-Party-Policy" stroke="none" stroke-width="1" fill="none" fill-rule="evenodd">
        <g id="Group-3" transform="translate(3.000000, 85.319900)">
            <mask id="mask-2" fill="white">
                <use xlink:href="#path-1"></use>
            </mask>
            <g id="Clip-2"></g>
            <path d="M125.755,0.84 C125.755,1.304 124.821,1.68 123.668,1.68 L2.088,1.68 C0.935,1.68 0,1.304 0,0.84 C0,0.376 0.935,7.10542736e-15 2.088,7.10542736e-15 L123.668,7.10542736e-15 C124.821,7.10542736e-15 125.755,0.376 125.755,0.84" id="Fill-1" fill="#ADA8B7" mask="url(#mask-2)"></path>
        </g>
        <g id="Group-3" transform="translate(39.000000, 9.000000)">
            <mask id="mask-4" fill="white">
                <use xlink:href="#path-3"></use>
            </mask>
            <g id="Clip-2"></g>
            <path d="M21.719973,46 L18.58744,35.4746586 L9.80395746,42.1676237 L13.5191829,31.8295723 L2.43904821,32.1334767 L11.5834589,25.9325894 L2.43904821,19.7308187 L12.9553449,20.0188212 L-0.000359132476,0 L18.6278424,16.2527031 L21.719973,5.86429545 L24.810308,16.2474025 L38.0299744,4.65309493 L30.2026821,20.0267722 L41,19.7308187 L31.8564872,25.9325894 L41,32.1334767 L29.9207631,31.8295723 L33.6359886,42.1676237 L24.852506,35.4746586 L21.719973,46 Z M20.0221742,31.1033821 L21.719973,36.8077743 L23.4177718,31.1033821 L28.1771749,34.7307995 L26.1642374,29.1280032 L32.1689324,29.2923236 L27.2138021,25.9325894 L32.1689324,22.5710884 L25.8814206,22.7433598 L29.5293087,15.5795195 L23.4599699,20.9022643 L21.719973,15.0565212 L19.9817718,20.8969636 L12.3053152,14.1986979 L17.8395466,22.7513108 L11.2710136,22.5710884 L16.226144,25.9325894 L11.2710136,29.2923236 L17.2757086,29.1280032 L15.2618733,34.7307995 L20.0221742,31.1033821 Z" id="Fill-1" fill="#CBCBCB" mask="url(#mask-4)"></path>
        </g>
        <g id="Group" transform="translate(8.098011, 39.262600)">
            <polygon id="Fill-88" fill="#000000" points="42.8934886 32.9914 42.7814886 30.2184 43.1244886 30.2044 43.2354886 32.9774"></polygon>
            <polygon id="Fill-90" fill="#000000" points="41.2550886 33.1985 41.8460886 30.4875 42.4200886 30.6145 41.8290886 33.3255"></polygon>
            <polygon id="Fill-92" fill="#1A1A1A" points="43.5875886 30.4842 43.4205886 32.4002 46.0775886 32.7962 46.0315886 30.5142"></polygon>
            <path d="M50.7176886,42.8372 C48.8776886,46.3752 44.5356886,47.7432 41.0196886,45.8922 C37.5026886,44.0412 36.1436886,39.6722 37.9836886,36.1352 C39.8236886,32.5962 44.1656886,31.2292 47.6816886,33.0812 C51.1986886,34.9322 52.5576886,39.3002 50.7176886,42.8372" id="Fill-94" fill="#1A1A1A"></path>
            <path d="M48.7235886,41.7871 C47.4595886,44.2171 44.4775886,45.1561 42.0625886,43.8851 C39.6475886,42.6151 38.7135886,39.6141 39.9775886,37.1841 C41.2405886,34.7551 44.2235886,33.8161 46.6385886,35.0871 C49.0535886,36.3581 49.9865886,39.3581 48.7235886,41.7871" id="Fill-96" fill="#ABB0CC"></path>
            <path d="M47.9387886,41.3747 C46.9017886,43.3677 44.4547886,44.1387 42.4737886,43.0957 C40.4917886,42.0527 39.7257886,39.5917 40.7627886,37.5977 C41.7987886,35.6037 44.2467886,34.8327 46.2277886,35.8767 C48.2097886,36.9197 48.9757886,39.3807 47.9387886,41.3747" id="Fill-98" fill="#1A1A1A"></path>
            <path d="M47.0059886,40.884 C46.2389886,42.359 44.4279886,42.93 42.9609886,42.158 C41.4949886,41.386 40.9269886,39.563 41.6949886,38.088 C42.4619886,36.613 44.2729886,36.043 45.7399886,36.815 C47.2059886,37.587 47.7739886,39.408 47.0059886,40.884" id="Fill-100" fill="#71708D"></path>
            <polygon id="Fill-102" fill="#ABB0CC" points="40.3388886 40.823 43.3488886 39.062 44.1118886 40.019 41.2698886 42.319"></polygon>
            <polygon id="Fill-104" fill="#ABB0CC" points="44.5295886 43.7358 43.8705886 40.4168 45.0225886 40.0178 46.1425886 43.3948"></polygon>
            <polygon id="Fill-106" fill="#ABB0CC" points="41.4762886 35.6329 43.8782886 38.0349 43.1342886 39.0059 40.2802886 36.7809"></polygon>
            <polygon id="Fill-108" fill="#ABB0CC" points="49.0009886 40.483 45.5289886 39.863 45.5129886 38.852 49.1229886 38.918"></polygon>
            <polygon id="Fill-110" fill="#ABB0CC" points="46.8627886 35.3666 45.3087886 38.5466 44.1557886 38.1496 45.3347886 34.7166"></polygon>
            <path d="M45.6481886,40.1693 C45.2731886,40.8903 44.3881886,41.1683 43.6721886,40.7913 C42.9551886,40.4143 42.6781886,39.5243 43.0531886,38.8033 C43.4281886,38.0823 44.3131886,37.8033 45.0291886,38.1813 C45.7461886,38.5583 46.0231886,39.4483 45.6481886,40.1693" id="Fill-112" fill="#ABB0CC"></path>
            <path d="M44.8035886,39.7242 C44.6725886,39.9762 44.3635886,40.0732 44.1135886,39.9422 C43.8635886,39.8102 43.7665886,39.4992 43.8975886,39.2472 C44.0285886,38.9972 44.3375886,38.8992 44.5875886,39.0302 C44.8365886,39.1622 44.9345886,39.4732 44.8035886,39.7242" id="Fill-114" fill="#71708D"></path>
            <path d="M45.1223886,38.3463 C45.0353886,38.5143 44.8293886,38.5793 44.6623886,38.4913 C44.4963886,38.4033 44.4313886,38.1973 44.5183886,38.0283 C44.6053886,37.8613 44.8113886,37.7963 44.9783886,37.8843 C45.1443886,37.9723 45.2093886,38.1783 45.1223886,38.3463" id="Fill-116" fill="#71708D"></path>
            <path d="M45.9372886,39.5872 C45.8502886,39.7552 45.6442886,39.8202 45.4782886,39.7322 C45.3112886,39.6452 45.2462886,39.4382 45.3342886,39.2702 C45.4212886,39.1022 45.6272886,39.0372 45.7932886,39.1252 C45.9602886,39.2132 46.0252886,39.4202 45.9372886,39.5872" id="Fill-118" fill="#71708D"></path>
            <path d="M44.9094886,40.8253 C44.8214886,40.9933 44.6164886,41.0583 44.4494886,40.9703 C44.2834886,40.8813 44.2184886,40.6753 44.3064886,40.5073 C44.3934886,40.3393 44.5994886,40.2753 44.7654886,40.3633 C44.9324886,40.4503 44.9964886,40.6573 44.9094886,40.8253" id="Fill-120" fill="#71708D"></path>
            <path d="M43.4719886,40.1461 C43.3839886,40.3131 43.1789886,40.3781 43.0119886,40.2911 C42.8459886,40.2031 42.7809886,39.9961 42.8689886,39.8281 C42.9559886,39.6611 43.1609886,39.5961 43.3279886,39.6831 C43.4949886,39.7711 43.5589886,39.9781 43.4719886,40.1461" id="Fill-122" fill="#71708D"></path>
            <path d="M43.7287886,38.6185 C43.6417886,38.7865 43.4367886,38.8515 43.2697886,38.7635 C43.1027886,38.6755 43.0387886,38.4685 43.1257886,38.3015 C43.2127886,38.1335 43.4187886,38.0685 43.5847886,38.1565 C43.7517886,38.2435 43.8167886,38.4505 43.7287886,38.6185" id="Fill-124" fill="#71708D"></path>
            <path d="M46.6274886,35.1081 C44.2234886,33.8431 41.2564886,34.7771 39.9984886,37.1951 C38.7414886,39.6131 39.6704886,42.5991 42.0744886,43.8641 C44.4774886,45.1291 47.4454886,44.1941 48.7024886,41.7771 C49.9594886,39.3591 49.0314886,36.3731 46.6274886,35.1081 M42.2224886,43.5781 C39.9754886,42.3961 39.1074886,39.6051 40.2824886,37.3451 C41.4584886,35.0851 44.2324886,34.2121 46.4784886,35.3941 C48.7254886,36.5761 49.5934886,39.3671 48.4184886,41.6271 C47.2434886,43.8871 44.4684886,44.7611 42.2224886,43.5781" id="Fill-126" fill="#DDE3F2"></path>
            <polygon id="Fill-128" fill="#1A1A1A" points="47.5240886 4.6743 45.7030886 8.1433 45.9860886 8.2913 47.8590886 4.8503"></polygon>
            <path d="M43.9859886,8.1283 C43.9859886,8.1283 44.4269886,7.5883 44.7679886,6.6233 C45.0439886,5.8443 44.8709886,5.2783 44.8709886,5.2783 L45.1619886,5.1603 C45.1619886,5.1603 45.2169886,6.4823 44.9789886,7.0573 C44.6059886,7.9613 44.5879886,7.8853 44.3279886,8.3093 L43.9859886,8.1283 Z" id="Fill-130" fill="#1A1A1A"></path>
            <polygon id="Fill-132" fill="#1A1A1A" points="43.7979886 12.9784 43.0889886 14.1824 47.5499886 14.7034 46.8049886 13.2574"></polygon>
            <polygon id="Fill-134" fill="#1A1A1A" points="20.7093886 27.0443 21.0163886 26.3203 26.5773886 28.7073 26.2703886 29.4323"></polygon>
            <path d="M9.92098857,7.0081 C9.92098857,7.0081 5.52398857,8.6031 4.52898857,9.0811 C3.53398857,9.5591 1.30598857,10.6531 1.30598857,10.6531 L1.00598857,11.2291 C1.00598857,11.2291 6.88398857,9.1741 8.34098857,8.9301 C9.69098857,8.7061 12.4209886,9.0601 14.1419886,10.0581 C15.8639886,11.0541 15.2219886,10.2161 15.2219886,10.2161 L9.92098857,7.0081 Z" id="Fill-136" fill="#1A1A1A"></path>
            <path d="M17.9652886,25.7525 L18.2552886,27.7525 C18.2552886,27.7525 20.1102886,28.5715 20.9942886,27.9885 C21.8782886,27.4055 24.3702886,25.9635 24.3702886,25.9635 L22.7172886,24.6765 C22.7172886,24.6765 20.6452886,26.6885 20.1542886,26.7025 C19.6612886,26.7175 18.9652886,25.4135 18.9652886,25.4135 L17.9652886,25.7525 Z" id="Fill-138" fill="#1A1A1A"></path>
            <path d="M13.5549886,23.2776 C11.7149886,26.8156 7.37298857,28.1826 3.85598857,26.3326 C0.338988572,24.4816 -1.01901143,20.1126 0.819988572,16.5756 C2.65998857,13.0376 7.00198857,11.6706 10.5179886,13.5216 C14.0349886,15.3726 15.3949886,19.7406 13.5549886,23.2776" id="Fill-140" fill="#1A1A1A"></path>
            <path d="M11.5600886,22.2275 C10.2960886,24.6575 7.31508857,25.5965 4.89908857,24.3255 C2.48408857,23.0545 1.55108857,20.0545 2.81408857,17.6255 C4.07808857,15.1955 7.06008857,14.2565 9.47508857,15.5275 C11.8900886,16.7985 12.8230886,19.7985 11.5600886,22.2275" id="Fill-142" fill="#ABB0CC"></path>
            <path d="M10.7752886,21.8151 C9.73928857,23.8091 7.29128857,24.5801 5.31028857,23.5361 C3.32828857,22.4931 2.56228857,20.0321 3.59928857,18.0381 C4.63528857,16.0441 7.08328857,15.2731 9.06428857,16.3171 C11.0462886,17.3601 11.8122886,19.8211 10.7752886,21.8151" id="Fill-144" fill="#1A1A1A"></path>
            <path d="M9.84268857,21.3244 C9.07568857,22.7994 7.26468857,23.3704 5.79768857,22.5984 C4.33168857,21.8264 3.76468857,20.0044 4.53168857,18.5294 C5.29868857,17.0534 7.10968857,16.4834 8.57668857,17.2554 C10.0436886,18.0274 10.6106886,19.8484 9.84268857,21.3244" id="Fill-146" fill="#71708D"></path>
            <polygon id="Fill-148" fill="#ABB0CC" points="3.17528857 21.2638 6.18528857 19.5038 6.94828857 20.4588 4.10628857 22.7588"></polygon>
            <polygon id="Fill-150" fill="#ABB0CC" points="7.36608857 24.1762 6.70708857 20.8572 7.85908857 20.4582 8.97908857 23.8342"></polygon>
            <polygon id="Fill-152" fill="#ABB0CC" points="4.31308857 16.0737 6.71508857 18.4757 5.97108857 19.4457 3.11708857 17.2217"></polygon>
            <polygon id="Fill-154" fill="#ABB0CC" points="11.8374886 20.9233 8.36548857 20.3033 8.34948857 19.2923 11.9594886 19.3583"></polygon>
            <polygon id="Fill-156" fill="#ABB0CC" points="9.69938857 15.807 8.14538857 18.987 6.99238857 18.591 8.17138857 15.157"></polygon>
            <path d="M8.48478857,20.6097 C8.10978857,21.3307 7.22578857,21.6097 6.50778857,21.2317 C5.79178857,20.8547 5.51478857,19.9647 5.88978857,19.2437 C6.26478857,18.5227 7.14978857,18.2447 7.86678857,18.6217 C8.58278857,18.9987 8.85978857,19.8887 8.48478857,20.6097" id="Fill-158" fill="#ABB0CC"></path>
            <path d="M7.64018857,20.1645 C7.50918857,20.4165 7.20018857,20.5135 6.95018857,20.3825 C6.70018857,20.2505 6.60318857,19.9395 6.73418857,19.6885 C6.86518857,19.4375 7.17418857,19.3405 7.42418857,19.4715 C7.67318857,19.6035 7.77118857,19.9135 7.64018857,20.1645" id="Fill-160" fill="#71708D"></path>
            <path d="M7.95888857,18.7867 C7.87188857,18.9547 7.66588857,19.0197 7.49988857,18.9317 C7.33288857,18.8437 7.26788857,18.6377 7.35588857,18.4697 C7.44288857,18.3017 7.64788857,18.2377 7.81488857,18.3247 C7.98088857,18.4127 8.04588857,18.6187 7.95888857,18.7867" id="Fill-162" fill="#71708D"></path>
            <path d="M8.77398857,20.0275 C8.68598857,20.1955 8.48098857,20.2605 8.31398857,20.1735 C8.14798857,20.0855 8.08298857,19.8785 8.17098857,19.7105 C8.25798857,19.5435 8.46398857,19.4785 8.62998857,19.5655 C8.79698857,19.6535 8.86098857,19.8605 8.77398857,20.0275" id="Fill-164" fill="#71708D"></path>
            <path d="M7.74598857,21.2656 C7.65898857,21.4336 7.45298857,21.4986 7.28598857,21.4106 C7.11998857,21.3226 7.05498857,21.1156 7.14298857,20.9476 C7.22998857,20.7806 7.43598857,20.7156 7.60198857,20.8036 C7.76898857,20.8916 7.83298857,21.0976 7.74598857,21.2656" id="Fill-166" fill="#71708D"></path>
            <path d="M6.30848857,20.5865 C6.22148857,20.7545 6.01548857,20.8195 5.84948857,20.7315 C5.68248857,20.6435 5.61748857,20.4365 5.70548857,20.2695 C5.79248857,20.1015 5.99848857,20.0365 6.16448857,20.1245 C6.33148857,20.2115 6.39548857,20.4185 6.30848857,20.5865" id="Fill-168" fill="#71708D"></path>
            <path d="M6.56548857,19.0589 C6.47848857,19.2269 6.27248857,19.2919 6.10548857,19.2039 C5.93948857,19.1159 5.87448857,18.9089 5.96248857,18.7419 C6.04948857,18.5739 6.25548857,18.5089 6.42148857,18.5969 C6.58848857,18.6839 6.65248857,18.8909 6.56548857,19.0589" id="Fill-170" fill="#71708D"></path>
            <path d="M9.46398857,15.5485 C7.06098857,14.2835 4.09298857,15.2185 2.83498857,17.6355 C1.57798857,20.0535 2.50798857,23.0395 4.91098857,24.3045 C7.31398857,25.5695 10.2819886,24.6345 11.5389886,22.2175 C12.7969886,19.7995 11.8669886,16.8135 9.46398857,15.5485 M5.05898857,24.0195 C2.81198857,22.8365 1.94398857,20.0455 3.11898857,17.7855 C4.29498857,15.5255 7.06898857,14.6515 9.31598857,15.8345 C11.5619886,17.0165 12.4299886,19.8075 11.2549886,22.0675 C10.0799886,24.3275 7.30598857,25.2015 5.05898857,24.0195" id="Fill-172" fill="#DDE3F2"></path>
            <path d="M12.3955886,13.7354 C12.3955886,13.7354 16.8185886,14.6234 17.2075886,14.9224 C17.5965886,15.2204 17.7145886,15.5664 17.7145886,15.5664 L19.2495886,16.1894 L22.1605886,24.1864 L18.7835886,26.7354 L12.4715886,23.9574 L12.3955886,13.7354 Z" id="Fill-174" fill="#1A1A1A"></path>
            <polygon id="Fill-176" fill="#1A1A1A" points="13.7000886 14.8151 13.0510886 13.9731 16.2460886 11.4811 16.8940886 12.3221"></polygon>
            <path d="M7.92678857,5.5788 C7.92678857,5.5788 8.49878857,4.9648 9.37378857,4.5508 C10.0337886,4.2378 11.3267886,3.8258 11.9777886,4.1688 C12.6297886,4.5118 8.87878857,6.4598 8.87878857,6.4598 L7.92678857,5.5788 Z" id="Fill-178" fill="#E21F34"></path>
            <path d="M42.7957886,14.0549 L46.8087886,14.3129 C46.8087886,14.3129 48.3467886,24.1169 46.5527886,26.3249 C44.7597886,28.5339 36.2167886,32.1989 36.2167886,32.1989 L34.1657886,30.6499 C34.1657886,30.6499 38.3147886,25.6779 40.2157886,23.2689 C42.7287886,20.0829 42.7957886,14.0549 42.7957886,14.0549" id="Fill-180" fill="#ABB0CC"></path>
            <path d="M46.3218886,24.9987 C46.3218886,24.9987 43.7938886,23.1347 42.0668886,23.9637 C39.8548886,25.0257 34.5478886,30.9257 34.5478886,30.9257 L36.8128886,32.6477 C36.8128886,32.6477 45.8878886,27.1617 46.3318886,26.5707 C46.7758886,25.9827 46.3218886,24.9987 46.3218886,24.9987" id="Fill-182" fill="#C7CEE5"></path>
            <path d="M47.4607886,27.5933 C47.4607886,27.5933 49.8427886,28.8963 50.8587886,30.6313 C52.7127886,33.8013 52.4457886,35.7323 52.4457886,35.7323 C52.4457886,35.7323 49.3837886,32.0493 46.2417886,31.1773 C43.5327886,30.4253 41.7707886,31.4863 41.7707886,31.4863 L40.8127886,30.9833 L47.4607886,27.5933 Z" id="Fill-184" fill="#CD1F1C"></path>
            <polygon id="Fill-186" fill="#382D36" points="47.4634886 13.6038 42.7364886 13.2818 43.5674886 7.7848 47.3644886 7.9278 48.6884886 11.4078"></polygon>
            <path d="M46.0082886,7.8766 L48.7732886,6.8146 C48.7732886,6.8146 50.1272886,8.6406 50.4952886,10.2376 C50.8052886,11.5886 50.8352886,13.4876 50.3062886,13.3716 C49.0962886,13.1056 44.9502886,10.9226 44.9502886,10.9226 L46.0082886,7.8766 Z" id="Fill-188" fill="#CD1F1C"></path>
            <path d="M46.3784886,9.9614 C46.0484886,10.5954 45.2694886,10.8414 44.6384886,10.5094 C44.0084886,10.1774 43.7644886,9.3934 44.0944886,8.7594 C44.4244886,8.1254 45.2034886,7.8794 45.8334886,8.2114 C46.4644886,8.5444 46.7084886,9.3274 46.3784886,9.9614" id="Fill-190" fill="#443742"></path>
            <path d="M43.4785886,9.7497 C43.3575886,9.7677 43.2375886,9.6277 43.2115886,9.4397 L43.1245886,8.8327 C43.0965886,8.6437 43.1725886,8.4767 43.2935886,8.4587 L45.4315886,8.1487 C45.5525886,8.1317 45.6725886,8.2707 45.6995886,8.4587 L45.7865886,9.0657 C45.8135886,9.2547 45.7375886,9.4227 45.6165886,9.4397 L43.4785886,9.7497 Z" id="Fill-192" fill="#443742"></path>
            <path d="M41.0781886,9.803 C40.9681886,9.819 40.8641886,9.722 40.8441886,9.586 L40.7821886,9.149 C40.7621886,9.014 40.8351886,8.891 40.9451886,8.874 L42.8871886,8.593 C42.9961886,8.578 43.1011886,8.675 43.1211886,8.81 L43.1831886,9.247 C43.2021886,9.383 43.1301886,9.506 43.0191886,9.522 L41.0781886,9.803 Z" id="Fill-194" fill="#382D36"></path>
            <path d="M43.7117886,4.8869 C43.7117886,4.8869 44.1407886,5.5729 45.1237886,5.6349 C45.6607886,5.6689 46.0287886,2.9349 45.8017886,2.8209 C45.5747886,2.7059 43.7117886,4.8869 43.7117886,4.8869" id="Fill-196" fill="#1A1A1A"></path>
            <path d="M46.8003886,4.2009 C46.8003886,4.2009 47.2253886,5.2369 47.9403886,5.1709 C48.4803886,5.1219 49.5383886,2.5809 49.4553886,2.2589 C49.3733886,1.9379 49.1203886,1.7119 49.1203886,1.7119 L46.8003886,4.2009 Z" id="Fill-198" fill="#1A1A1A"></path>
            <path d="M33.2295886,34.0265 C33.2295886,34.0265 22.0785886,25.4255 21.2435886,24.3185 C20.4095886,23.2115 19.8615886,19.0005 19.6755886,18.4015 C19.4885886,17.8025 17.5395886,12.9375 14.1985886,10.4275 C10.8575886,7.9185 8.87858857,6.4595 8.87858857,6.4595 C8.87858857,6.4595 10.6805886,4.7245 11.9445886,4.2345 C13.2625886,3.7225 15.2595886,3.2495 17.8235886,4.5745 C21.2885886,6.3655 29.0625886,15.6645 29.8165886,17.5635 C30.5715886,19.4635 30.4635886,19.9905 30.4635886,19.9905 L28.4535886,20.8245 L26.8675886,25.2745 L36.3545886,32.2715 L33.2295886,34.0265 Z" id="Fill-200" fill="#1A1A1A"></path>
            <path d="M16.7649886,3.0998 L18.5879886,2.3068 C18.5879886,2.3068 23.1409886,5.0358 24.6129886,6.3538 C26.0849886,7.6708 27.6689886,9.1318 29.1649886,10.0428 C30.6199886,10.9288 32.6409886,12.1568 32.8599886,12.9888 C34.0589886,17.5428 31.6629886,19.2788 31.6629886,19.2788 C31.6629886,19.2788 26.5969886,11.9108 23.2429886,9.2878 C19.8899886,6.6628 16.7649886,3.0998 16.7649886,3.0998" id="Fill-202" fill="#382D36"></path>
            <path d="M26.8645886,10.001 C28.0075886,11.335 30.4635886,14.565 31.0685886,15.635 C31.6735886,16.705 32.5815886,18.109 32.5815886,18.109 L31.6625886,19.279 L16.3715886,3.342 L18.5875886,2.306 C18.5875886,2.306 23.8705886,6.505 26.8645886,10.001" id="Fill-204" fill="#1A1A1A"></path>
            <path d="M27.2025886,22.1128 C27.2025886,22.1128 28.2695886,15.0778 24.1755886,10.2928 C20.1895886,5.6338 16.4485886,2.4348 12.3195886,4.0078 C8.14258857,5.5988 8.87858857,6.4598 8.87858857,6.4598 C8.87858857,6.4598 14.6495886,10.6148 15.5255886,11.6098 C16.4025886,12.6048 18.3375886,15.5168 18.3375886,15.5168 C18.3375886,15.5168 19.0925886,15.0678 19.8875886,15.7598 C20.6825886,16.4508 27.2025886,22.1128 27.2025886,22.1128" id="Fill-206" fill="#F03218"></path>
            <path d="M20.3727886,16.6714 C20.3727886,16.6714 20.3757886,16.6164 20.3797886,16.5134 C20.3837886,16.4094 20.3867886,16.2584 20.3827886,16.0654 C20.3737886,15.6794 20.3377886,15.1254 20.1977886,14.4784 C20.1257886,14.1564 20.0297886,13.8094 19.8917886,13.4574 C19.7567886,13.1044 19.5787886,12.7454 19.3567886,12.3994 C19.1317886,12.0544 18.8627886,11.7234 18.5457886,11.4254 C18.2317886,11.1214 17.8917886,10.8344 17.5377886,10.5654 C17.1827886,10.2964 16.8137886,10.0464 16.4387886,9.8204 C16.0627886,9.5944 15.6817886,9.3904 15.3047886,9.2084 C14.5527886,8.8444 13.8177886,8.5724 13.1787886,8.3744 C12.5377886,8.1764 11.9927886,8.0524 11.6087886,7.9784 C11.2237886,7.9044 11.0017886,7.8784 11.0017886,7.8784 C11.0017886,7.8784 11.2247886,7.8984 11.6117886,7.9634 C11.9967886,8.0274 12.5467886,8.1374 13.1937886,8.3194 C13.8407886,8.5014 14.5857886,8.7564 15.3537886,9.1034 C15.7387886,9.2764 16.1277886,9.4734 16.5127886,9.6914 C16.8987886,9.9114 17.2777886,10.1544 17.6457886,10.4174 C18.0107886,10.6824 18.3637886,10.9654 18.6927886,11.2664 C19.0277886,11.5664 19.3167886,11.9084 19.5597886,12.2624 C19.7997886,12.6204 19.9937886,12.9914 20.1427886,13.3564 C20.2947886,13.7204 20.4017886,14.0784 20.4837886,14.4114 C20.6437886,15.0814 20.6937886,15.6544 20.7117886,16.0544 C20.7197886,16.2554 20.7197886,16.4124 20.7187886,16.5204 C20.7167886,16.6274 20.7147886,16.6844 20.7147886,16.6844 L20.3727886,16.6714 Z" id="Fill-208" fill="#FFFFFF"></path>
            <path d="M18.3377886,15.517 C18.3377886,15.517 19.1747886,15.217 19.8877886,15.76 C20.6007886,16.302 21.7237886,17.492 21.7237886,17.492 C21.7237886,17.492 21.2387886,20.977 21.7507886,21.748 C22.2627886,22.518 35.7477886,31.824 35.7477886,31.824 L32.7267886,33.522 C32.7267886,33.522 21.4417886,24.847 21.0717886,24.039 C20.6567886,23.133 19.9347886,19.716 19.6757886,18.402 C19.5137886,17.585 18.3377886,15.517 18.3377886,15.517" id="Fill-210" fill="#382D36"></path>
            <path d="M23.9910886,19.3243 C23.9910886,19.3243 23.6680886,13.6593 20.6500886,11.0693 C15.6130886,6.7493 8.87808857,6.4603 8.87808857,6.4603 L9.11508857,6.6353 C9.11508857,6.6353 16.1300886,7.3193 20.3100886,11.7253 C21.6060886,13.0923 21.3370886,17.0193 21.3370886,17.0193 L23.9910886,19.3243 Z" id="Fill-212" fill="#CD1F1C"></path>
            <polygon id="Fill-214" fill="#1A1A1A" points="7.19328857 8.6268 6.48328857 7.7778 7.06128857 7.2898 7.85628857 7.9748"></polygon>
            <polygon id="Fill-216" fill="#1A1A1A" points="5.30688857 9.4821 4.71488857 8.6801 5.22288857 8.4211 5.81688857 8.9801"></polygon>
            <polygon id="Fill-218" fill="#1A1A1A" points="9.24248857 8.1292 8.23148857 7.5442 8.74248857 6.7142 9.77848857 7.2352"></polygon>
            <path d="M34.7366886,35.2219 C34.7366886,35.2219 33.7246886,35.8939 33.0706886,35.5509 C28.6786886,33.2419 25.4886886,30.3539 25.4886886,30.3539 L26.4086886,28.5839 L34.7366886,35.2219 Z" id="Fill-220" fill="#1A1A1A"></path>
            <path d="M25.8740886,30.2807 C25.8710886,30.2737 25.5030886,29.5997 24.7740886,28.6497 C24.0290886,27.6797 23.0300886,26.3657 23.0190886,26.3537 L23.4090886,26.0547 C23.4180886,26.0677 24.4170886,27.3797 25.1610886,28.3487 C25.9170886,29.3327 26.2890886,30.0177 26.3040886,30.0457 L25.8740886,30.2807 Z" id="Fill-222" fill="#1A1A1A"></path>
            <path d="M19.9020886,23.6122 C19.1800886,25.0012 17.4740886,25.5392 16.0930886,24.8112 C14.7110886,24.0852 14.1770886,22.3692 14.9000886,20.9792 C15.6230886,19.5902 17.3280886,19.0522 18.7090886,19.7802 C20.0910886,20.5062 20.6250886,22.2222 19.9020886,23.6122" id="Fill-224" fill="#382D36"></path>
            <path d="M21.8963886,26.2546 L21.6763886,26.6766 C21.6763886,26.6766 16.3143886,26.9426 15.9903886,26.6056 C15.6673886,26.2686 13.3053886,25.1926 13.3053886,25.1926 L12.7013886,25.2076 C12.7013886,25.2076 3.62338857,17.8436 2.85338857,16.7696 C2.08338857,15.6976 2.14338857,15.2286 2.85138857,14.6836 C3.55938857,14.1376 5.27238857,13.5436 5.27238857,13.5436 C5.27238857,13.5436 8.51238857,16.1076 10.0163886,16.8996 C12.3763886,18.1416 11.7933886,18.7216 12.3673886,19.6916 C12.9413886,20.6616 13.2843886,23.2236 13.5433886,23.5886 C13.8023886,23.9516 15.6473886,25.3496 16.2213886,25.5216 C16.7953886,25.6936 21.8963886,26.2546 21.8963886,26.2546" id="Fill-226" fill="#1A1A1A"></path>
            <path d="M4.84358857,13.7673 C4.84358857,13.7673 3.59558857,16.3643 4.56858857,17.2523 C5.54258857,18.1403 10.8675886,22.2573 10.8675886,22.2573 L12.4715886,23.9573 C12.4715886,23.9573 12.7245886,23.6313 12.8215886,23.2863 C12.9175886,22.9403 12.3135886,21.4613 11.9965886,20.9983 C11.6795886,20.5363 7.42158857,15.8433 7.42158857,15.8433 L4.84358857,13.7673 Z" id="Fill-228" fill="#C7CEE5"></path>
            <path d="M6.36568857,11.0798 C6.36568857,11.0798 6.66768857,12.8068 7.12268857,12.8798 C7.57668857,12.9518 9.32968857,12.9568 10.5736886,13.6118 C12.3326886,14.5368 13.3916886,16.1908 13.3916886,16.1908 L15.1906886,15.5998 C15.1906886,15.5998 13.9416886,13.3388 12.0336886,12.1988 C9.31168857,10.5728 6.36568857,11.0798 6.36568857,11.0798" id="Fill-230" fill="#382D36"></path>
            <path d="M6.03248857,16.2289 C5.92248857,16.4409 5.66148857,16.5229 5.45048857,16.4119 C5.23948857,16.3009 5.15848857,16.0389 5.26848857,15.8269 C5.37948857,15.6149 5.63948857,15.5329 5.85048857,15.6439 C6.06148857,15.7549 6.14248857,16.0169 6.03248857,16.2289" id="Fill-232" fill="#71708D"></path>
            <path d="M5.41658857,16.477 C5.16958857,16.347 5.07458857,16.041 5.20358857,15.793 C5.33258857,15.545 5.63758857,15.448 5.88458857,15.578 C6.13058857,15.708 6.22658857,16.015 6.09758857,16.263 C5.96858857,16.511 5.66258857,16.607 5.41658857,16.477 M5.81658857,15.709 C5.64158857,15.618 5.42458857,15.685 5.33358857,15.861 C5.24258857,16.036 5.30958857,16.254 5.48458857,16.346 C5.65958857,16.438 5.87558857,16.371 5.96758857,16.194 C6.05858857,16.019 5.99058857,15.801 5.81658857,15.709" id="Fill-234" fill="#000000"></path>
            <path d="M11.2899886,21.166 C11.1799886,21.378 10.9189886,21.46 10.7079886,21.349 C10.4969886,21.238 10.4159886,20.976 10.5259886,20.764 C10.6369886,20.551 10.8969886,20.47 11.1079886,20.581 C11.3189886,20.692 11.3999886,20.953 11.2899886,21.166" id="Fill-236" fill="#71708D"></path>
            <path d="M10.6740886,21.4145 C10.4280886,21.2845 10.3320886,20.9775 10.4610886,20.7295 C10.5900886,20.4815 10.8950886,20.3855 11.1420886,20.5155 C11.3880886,20.6445 11.4840886,20.9525 11.3550886,21.2005 C11.2260886,21.4485 10.9210886,21.5435 10.6740886,21.4145 M11.0740886,20.6465 C10.8990886,20.5545 10.6830886,20.6215 10.5910886,20.7985 C10.5000886,20.9735 10.5670886,21.1915 10.7420886,21.2835 C10.9170886,21.3755 11.1330886,21.3075 11.2250886,21.1315 C11.3160886,20.9555 11.2480886,20.7375 11.0740886,20.6465" id="Fill-238" fill="#000000"></path>
            <polygon id="Fill-240" fill="#71708D" points="43.2667886 17.8003 46.5857886 21.0403 46.4247886 16.9853 44.7687886 16.0913"></polygon>
            <polygon id="Fill-242" fill="#1A1A1A" points="11.2657886 0 11.0797886 0.356 18.5647886 4.929 18.7867886 4.501"></polygon>
            <polygon id="Fill-244" fill="#1A1A1A" points="12.3224886 1.0105 12.0004886 1.5495 12.5284886 1.8665 12.8824886 1.3465"></polygon>
            <polygon id="Fill-246" fill="#1A1A1A" points="15.7253886 2.8431 15.3663886 3.4531 15.9133886 3.7341 16.2843886 3.1791"></polygon>
            <path d="M48.3869886,13.938 C48.1629886,13.579 47.3799886,13.037 46.7499886,13.54 C46.1199886,14.043 45.9549886,15.069 46.2139886,16.874 C46.4739886,18.68 46.4159886,21.361 46.2509886,22.829 C46.1299886,23.918 45.3879886,26.083 44.6099886,26.694 C43.8319886,27.304 32.6489886,33.566 32.6489886,33.566 L34.7369886,35.222 C46.2809886,29.176 46.1639886,28.921 47.4629886,28.474 C48.4739886,28.126 49.8129886,27.857 50.1309886,27.421 C50.4499886,26.986 51.1729886,25.419 50.7409886,23.059 C50.3089886,20.699 49.6329886,15.932 48.3869886,13.938" id="Fill-248" fill="#CD1F1C"></path>
            <path d="M44.3420886,17.234 C43.9270886,17.706 43.4460886,17.96 43.2670886,17.8 C43.0880886,17.641 43.2790886,17.129 43.6930886,16.657 C44.1080886,16.185 44.5890886,15.932 44.7690886,16.091 C44.9470886,16.25 44.7570886,16.762 44.3420886,17.234" id="Fill-250" fill="#B9C0DB"></path>
            <path d="M45.0153886,4.1181 C44.5013886,4.7211 43.9173886,5.0651 43.7113886,4.8871 C43.5063886,4.7091 43.7563886,4.0771 44.2703886,3.4741 C44.7853886,2.8721 45.3693886,2.5281 45.5743886,2.7061 C45.7803886,2.8831 45.5303886,3.5161 45.0153886,4.1181" id="Fill-252" fill="#E0E1E2"></path>
            <path d="M25.9754886,25.7233 C25.9754886,25.7233 25.9694886,25.7493 25.9624886,25.7973 C25.9554886,25.8463 25.9504886,25.9183 25.9504886,26.0083 C25.9514886,26.0973 25.9634886,26.2063 25.9974886,26.3223 C26.0314886,26.4373 26.0884886,26.5603 26.1774886,26.6723 C26.1884886,26.6863 26.1994886,26.7003 26.2104886,26.7143 L26.2504886,26.7543 C26.2754886,26.7803 26.3014886,26.8083 26.3324886,26.8303 C26.3634886,26.8543 26.3914886,26.8813 26.4244886,26.9033 C26.4604886,26.9283 26.4974886,26.9533 26.5344886,26.9793 C26.6814886,27.0813 26.8374886,27.1903 26.9964886,27.3053 C27.1554886,27.4203 27.3184886,27.5393 27.4854886,27.6603 C27.6524886,27.7803 27.8194886,27.9043 27.9874886,28.0283 C28.1534886,28.1533 28.3204886,28.2783 28.4824886,28.4043 C28.6454886,28.5293 28.8044886,28.6543 28.9584886,28.7763 C29.2664886,29.0193 29.5484886,29.2513 29.7884886,29.4553 C30.0274886,29.6593 30.2244886,29.8333 30.3594886,29.9583 C30.4274886,30.0193 30.4794886,30.0703 30.5154886,30.1043 C30.5514886,30.1383 30.5704886,30.1563 30.5704886,30.1563 C30.5704886,30.1563 30.5474886,30.1433 30.5044886,30.1203 C30.4614886,30.0943 30.3984886,30.0603 30.3194886,30.0133 C30.1604886,29.9203 29.9354886,29.7863 29.6704886,29.6163 C29.4064886,29.4473 29.1004886,29.2453 28.7784886,29.0223 C28.6174886,28.9113 28.4504886,28.7933 28.2834886,28.6723 C28.1164886,28.5523 27.9484886,28.4263 27.7794886,28.3023 C27.6124886,28.1763 27.4444886,28.0503 27.2824886,27.9233 C27.2404886,27.8923 27.2004886,27.8603 27.1594886,27.8293 C27.1204886,27.7973 27.0804886,27.7653 27.0414886,27.7343 C26.9634886,27.6703 26.8854886,27.6073 26.8104886,27.5453 C26.6584886,27.4203 26.5134886,27.2993 26.3764886,27.1823 C26.3424886,27.1533 26.3084886,27.1253 26.2754886,27.0963 C26.2384886,27.0653 26.2064886,27.0293 26.1744886,26.9973 C26.1414886,26.9663 26.1144886,26.9283 26.0874886,26.8923 C26.0734886,26.8743 26.0604886,26.8573 26.0464886,26.8403 C26.0354886,26.8213 26.0254886,26.8023 26.0144886,26.7843 C25.9264886,26.6353 25.8824886,26.4813 25.8684886,26.3473 C25.8524886,26.2113 25.8654886,26.0943 25.8834886,26.0023 C25.9004886,25.9083 25.9264886,25.8393 25.9434886,25.7923 C25.9624886,25.7463 25.9754886,25.7233 25.9754886,25.7233" id="Fill-254" fill="#5E4D5C"></path>
            <path d="M44.8791886,39.7752 C44.8681886,39.9632 44.6941886,40.1042 44.4921886,40.0922 L44.0851886,40.0672 C43.8821886,40.0542 43.7271886,39.8922 43.7391886,39.7052 L44.2091886,31.8892 C44.2211886,31.7012 44.3941886,31.5592 44.5971886,31.5712 L45.0041886,31.5962 C45.2061886,31.6082 45.3621886,31.7702 45.3501886,31.9582 L44.8791886,39.7752 Z" id="Fill-256" fill="#C7CEE5"></path>
            <path d="M14.6925886,4.236 C13.7945886,4.236 13.2855886,4.662 13.3445886,5.211 C13.4215886,5.939 15.2385886,5.743 17.3175886,6.684 C18.9405886,7.418 21.0285886,9.194 21.0285886,9.194 C21.0285886,9.194 19.1515886,6.056 16.9855886,4.909 C16.0815886,4.429 15.2985886,4.236 14.6925886,4.236" id="Fill-258" fill="#FFFFFF"></path>
            <path d="M17.4019886,20.9429 C16.9179886,20.9429 16.4499886,21.2069 16.2099886,21.6689 C15.8649886,22.3309 16.1199886,23.1479 16.7779886,23.4939 C16.9769886,23.5989 17.1899886,23.6489 17.3999886,23.6489 C17.8839886,23.6489 18.3519886,23.3849 18.5929886,22.9229 C18.9369886,22.2609 18.6829886,21.4429 18.0239886,21.0969 C17.8249886,20.9929 17.6119886,20.9429 17.4019886,20.9429" id="Fill-260" fill="#262225"></path>
            <path d="M17.9756886,21.2379 C17.8306886,21.3099 17.6536886,21.2499 17.5816886,21.1039 C17.5096886,20.9579 17.5686886,20.7799 17.7146886,20.7079 C17.8606886,20.6349 18.0366886,20.6939 18.1086886,20.8409 C18.1816886,20.9879 18.1216886,21.1649 17.9756886,21.2379" id="Fill-262" fill="#493D49"></path>
            <path d="M17.0877886,23.8839 C16.9417886,23.9569 16.7657886,23.8969 16.6937886,23.7509 C16.6207886,23.6039 16.6807886,23.4259 16.8257886,23.3539 C16.9717886,23.2809 17.1477886,23.3409 17.2207886,23.4879 C17.2927886,23.6339 17.2327886,23.8119 17.0877886,23.8839" id="Fill-264" fill="#493D49"></path>
            <path d="M16.2161886,22.1137 C16.0711886,22.1867 15.8941886,22.1267 15.8221886,21.9797 C15.7501886,21.8337 15.8091886,21.6557 15.9551886,21.5837 C16.1001886,21.5117 16.2771886,21.5707 16.3501886,21.7167 C16.4211886,21.8637 16.3621886,22.0417 16.2161886,22.1137" id="Fill-266" fill="#493D49"></path>
            <path d="M18.8473886,23.0077 C18.7013886,23.0807 18.5243886,23.0207 18.4523886,22.8747 C18.3803886,22.7277 18.4403886,22.5497 18.5853886,22.4767 C18.7313886,22.4047 18.9073886,22.4647 18.9803886,22.6107 C19.0523886,22.7577 18.9923886,22.9347 18.8473886,23.0077" id="Fill-268" fill="#493D49"></path>
            <polygon id="Fill-270" fill="#1A1A1A" points="16.0768886 13.3904 15.0288886 12.0484 15.2988886 11.8354 16.3458886 13.1774"></polygon>
            <polygon id="Fill-272" fill="#1A1A1A" points="15.5142886 13.8046 14.4662886 12.4626 14.7362886 12.2496 15.7842886 13.5916"></polygon>
            <polygon id="Fill-274" fill="#1A1A1A" points="14.9759886 14.1724 13.9279886 12.8304 14.1969886 12.6174 15.2449886 13.9594"></polygon>
            <path d="M45.0657886,32.4538 C44.9807886,32.6178 44.7797886,32.6808 44.6177886,32.5958 C44.4547886,32.5098 44.3917886,32.3078 44.4767886,32.1438 C44.5617886,31.9808 44.7627886,31.9178 44.9257886,32.0028 C45.0877886,32.0878 45.1507886,32.2908 45.0657886,32.4538" id="Fill-276" fill="#71708D"></path>
            <path d="M44.5844886,32.6642 C44.3854886,32.5592 44.3074886,32.3112 44.4124886,32.1112 C44.5164886,31.9102 44.7634886,31.8322 44.9624886,31.9382 C45.1614886,32.0432 45.2384886,32.2902 45.1344886,32.4912 C45.0304886,32.6912 44.7834886,32.7692 44.5844886,32.6642 M44.8944886,32.0692 C44.7674886,32.0022 44.6094886,32.0522 44.5424886,32.1792 C44.4764886,32.3072 44.5254886,32.4662 44.6534886,32.5322 C44.7794886,32.6002 44.9374886,32.5502 45.0034886,32.4222 C45.0704886,32.2942 45.0204886,32.1362 44.8944886,32.0692" id="Fill-278" fill="#000000"></path>
            <path d="M44.6451886,39.6413 C44.5601886,39.8043 44.3591886,39.8673 44.1971886,39.7823 C44.0341886,39.6963 43.9711886,39.4943 44.0561886,39.3313 C44.1421886,39.1673 44.3421886,39.1043 44.5041886,39.1893 C44.6671886,39.2753 44.7301886,39.4773 44.6451886,39.6413" id="Fill-280" fill="#71708D"></path>
            <path d="M44.1637886,39.8512 C43.9647886,39.7462 43.8867886,39.4982 43.9917886,39.2982 C44.0957886,39.0972 44.3417886,39.0192 44.5417886,39.1252 C44.7407886,39.2292 44.8177886,39.4772 44.7137886,39.6782 C44.6097886,39.8782 44.3627886,39.9562 44.1637886,39.8512 M44.4737886,39.2562 C44.3457886,39.1892 44.1887886,39.2392 44.1217886,39.3672 C44.0557886,39.4942 44.1047886,39.6532 44.2317886,39.7192 C44.3587886,39.7872 44.5167886,39.7372 44.5827886,39.6092 C44.6497886,39.4812 44.6007886,39.3232 44.4737886,39.2562" id="Fill-282" fill="#000000"></path>
            <path d="M43.7237886,28.5173 C43.7237886,28.5173 46.7107886,28.2343 48.3307886,27.0243 C50.0117886,25.7703 50.1217886,24.4503 49.4067886,24.1953 C48.8427886,23.9933 48.3387886,25.4203 46.9017886,26.6403 C45.7807886,27.5903 43.7237886,28.5173 43.7237886,28.5173" id="Fill-284" fill="#FFFFFF"></path>
            <path d="M51.2488886,33.4102 C51.2488886,33.4102 50.4638886,31.3942 49.3148886,30.5102 C48.1218886,29.5932 47.1958886,29.7772 47.1628886,30.3242 C47.1358886,30.7552 48.2138886,30.8222 49.3338886,31.5772 C50.2068886,32.1662 51.2488886,33.4102 51.2488886,33.4102" id="Fill-286" fill="#FFFFFF"></path>
        </g>
        <g id="Group-18" transform="translate(53.192899, 29.000263)">
            <g id="Group-3" transform="translate(17.099414, 50.104938) rotate(-17.000000) translate(-17.099414, -50.104938) translate(13.115530, 43.964530)">
                <mask id="mask-6" fill="white">
                    <use xlink:href="#path-5"></use>
                </mask>
                <g id="Clip-2"></g>
                <path d="M7.9677676,11.010575 C7.9677676,11.711996 7.4184389,12.2810641 6.74203417,12.2810641 L1.22623373,12.2810641 C0.548828397,12.2810641 0,11.711996 0,11.010575 L0,1.26999339 C0,0.568076669 0.548828397,0 1.22623373,0 L6.74203417,0 C7.4184389,0 7.9677676,0.568076669 7.9677676,1.26999339 L7.9677676,11.010575 Z" id="Fill-1" fill="#3D4166" mask="url(#mask-6)"></path>
            </g>
            <g id="Group-6" transform="translate(62.379040, 36.261567) rotate(-17.000000) translate(-62.379040, -36.261567) translate(58.394906, 30.121159)">
                <mask id="mask-8" fill="white">
                    <use xlink:href="#path-7"></use>
                </mask>
                <g id="Clip-5"></g>
                <path d="M0,11.010575 C0,11.711996 0.549328697,12.2810641 1.22573343,12.2810641 L6.74203417,12.2810641 C7.4189392,12.2810641 7.9682679,11.711996 7.9682679,11.010575 L7.9682679,1.26999339 C7.9682679,0.568076669 7.4189392,0 6.74203417,0 L1.22573343,0 C0.549328697,0 0,0.568076669 0,1.26999339 L0,11.010575 Z" id="Fill-4" fill="#3D4166" mask="url(#mask-8)"></path>
            </g>
            <mask id="mask-10" fill="white">
                <use xlink:href="#path-9" transform="translate(35.307101, 28.999737) rotate(-17.000000) translate(-35.307101, -28.999737) "></use>
            </mask>
            <g id="Clip-8" transform="translate(35.307101, 28.999737) rotate(-17.000000) translate(-35.307101, -28.999737) "></g>
            <polygon id="Fill-7" fill="#3D4166" mask="url(#mask-10)" transform="translate(55.114510, 13.649926) rotate(-17.000000) translate(-55.114510, -13.649926) " points="53.5535756 14.204619 56.6754436 14.204619 56.6754436 13.0952337 53.5535756 13.0952337"></polygon>
            <path d="M54.5422439,12.0243044 C54.5422439,12.0243044 54.7208508,7.21746368 59.0024127,9.25084108 C63.2839746,11.2847142 61.2327472,12.2096977 59.5372327,12.9487922 C57.8432191,13.6878867 54.7208508,13.0409931 54.7208508,13.0409931 L54.5422439,12.0243044 Z" id="Fill-9" fill="#8A96FF" mask="url(#mask-10)" transform="translate(58.043995, 11.026176) rotate(-17.000000) translate(-58.043995, -11.026176) "></path>
            <polygon id="Fill-10" fill="#3D4166" mask="url(#mask-10)" transform="translate(10.351011, 27.508113) rotate(-17.000000) translate(-10.351011, -27.508113) " points="8.78982638 28.0628058 11.9121947 28.0628058 11.9121947 26.9534205 8.78982638 26.9534205"></polygon>
            <path d="M9.95668752,27.969281 C9.95668752,27.969281 9.77858095,23.1624403 5.49651873,25.1958177 C1.21445651,27.2296908 3.26668448,28.1546743 4.96169871,28.8937688 C6.65621264,29.6328633 9.77858095,28.9859697 9.77858095,28.9859697 L9.95668752,27.969281 Z" id="Fill-11" fill="#8A96FF" mask="url(#mask-10)" transform="translate(6.454914, 26.971153) rotate(-17.000000) translate(-6.454914, -26.971153) "></path>
            <path d="M58.0508355,20.5037427 C58.0508355,20.5037427 52.1262905,9.28150216 50.2881907,9.28150216 C49.1895333,9.28150216 45.4863174,7.65757618 34.6953605,8.12552066 C23.5972198,8.32925497 20.6854776,9.65278438 19.6123354,9.91749026 C17.8242655,10.358171 11.4404457,20.5037427 11.4404457,20.5037427 C2.9218485,26.9984552 6.9857802,44.0045689 6.53701167,42.3122358 C10.3673036,45.963095 26.776122,46.4008016 34.7463911,46.3910486 C42.7156595,46.4008016 59.1244779,45.963095 62.9542695,42.3122358 C62.9542695,42.3122358 66.9386536,27.2790236 58.0508355,20.5037427" id="Fill-12" fill="#8A96FF" mask="url(#mask-10)" transform="translate(34.899368, 27.215942) rotate(-17.000000) translate(-34.899368, -27.215942) "></path>
            <path d="M59.268146,40.6841119 C55.8966286,40.9438607 38.9384815,40.9116399 38.9384815,40.9116399 L38.743865,40.9116399 C38.743865,40.9116399 21.785718,40.9438607 18.4147009,40.6841119 C18.4147009,40.6841119 18.1080174,41.7895315 21.0702899,41.9843432 C23.739387,42.1603181 36.1933389,42.2302123 38.6327986,42.2426049 L38.6327986,42.2445877 C38.6327986,42.2445877 38.7068429,42.2445877 38.8409231,42.2435963 C38.9760039,42.2445877 39.0500482,42.2445877 39.0500482,42.2445877 L39.0495479,42.2426049 C41.4885073,42.2302123 53.9429596,42.1603181 56.6120567,41.9843432 C59.5733286,41.7895315 59.268146,40.6841119 59.268146,40.6841119" id="Fill-13" fill="#3D4166" mask="url(#mask-10)" transform="translate(38.841367, 41.464350) rotate(-17.000000) translate(-38.841367, -41.464350) "></path>
            <path d="M9.48553342,21.0536642 C9.48553342,21.0536642 36.4806863,18.9236245 52.7999511,21.1607362 C52.7999511,21.1607362 47.8735033,11.8925604 46.7448279,11.2535981 C46.7448279,11.2535981 41.6112562,9.57117907 30.9373694,9.87950689 C20.2629822,10.1883304 20.001826,10.8709147 16.3626484,11.2531024 C16.3626484,11.2531024 12.4628149,15.4080925 9.48553342,21.0536642" id="Fill-14" fill="#547296" mask="url(#mask-10)" transform="translate(31.142742, 15.501254) rotate(-17.000000) translate(-31.142742, -15.501254) "></path>
            <path d="M23.3080496,32.9182148 C23.5196762,33.2245598 23.7318032,33.512068 23.9424292,33.7698341 C26.0151694,36.3063509 29.2456024,36.7802439 37.6656406,36.6414468 C46.0866794,36.7802439 49.3171124,36.3063509 51.3893523,33.7698341 C51.6004787,33.512068 51.8121053,33.2245598 52.0242322,32.9182148 L23.3080496,32.9182148 Z" id="Fill-15" fill="#3D4166" mask="url(#mask-10)" transform="translate(37.666141, 34.790737) rotate(-17.000000) translate(-37.666141, -34.790737) "></path>
            <path d="M51.7685958,28.040042 C52.2003542,26.3452304 53.5466598,24.7664134 56.2437736,24.1824743 C58.9398868,23.5980394 62.4439836,22.195693 63.2529676,25.5263275 C64.0614514,28.8589448 60.44929,28.9169422 58.4545965,29.1504187 C56.4594026,29.384391 51.3368375,29.7348536 51.7685958,28.040042" id="Fill-16" fill="#D2D2D2" mask="url(#mask-10)" transform="translate(57.555933, 26.367636) rotate(-17.000000) translate(-57.555933, -26.367636) "></path>
            <path d="M21.3762593,40.870645 C20.944501,39.1758334 19.5981954,37.5970165 16.9005813,37.0130773 C14.2054686,36.4286424 10.7008716,35.0262961 9.89188754,38.3569306 C9.08340378,41.6895479 12.6955652,41.7475452 14.690759,41.9810218 C16.6854525,42.214994 21.8080177,42.5654567 21.3762593,40.870645" id="Fill-17" fill="#D2D2D2" mask="url(#mask-10)" transform="translate(15.588922, 39.198239) rotate(-17.000000) translate(-15.588922, -39.198239) "></path>
        </g>
    </g>
</svg>