<?xml version="1.0" encoding="UTF-8"?>
<svg width="132px" height="108px" viewBox="0 0 132 108" version="1.1" xmlns="http://www.w3.org/2000/svg" xmlns:xlink="http://www.w3.org/1999/xlink">
    <title>Own Damage Policy</title>
    <defs>
        <path d="M32.5219572,11.5213726 L26.3625141,14.5538412 C26.3625141,14.5538412 10.139066,17.9504738 2.97118242,21.7902619 L2.97118242,21.7902619 C2.97118242,21.7902619 2.03210195,22.2026241 1.20862154,22.8773986 L1.20862154,22.8773986 C0.559901217,23.4095868 -0.0140190698,24.1024356 0,24.8896725 L0,24.8896725 C0.00230093837,24.9646474 0.00570094007,25.0396224 0.00910094177,25.1119196 L0.00910094177,25.1119196 C0.0512609628,25.8837599 0.229421052,26.6020466 0.404181139,27.2547303 L0.404181139,27.2547303 C0.610901243,28.030587 0.810821343,28.7113863 0.769341322,29.2710207 L0.769341322,29.2710207 C0.688421281,30.3467772 -0.150019138,30.894362 0.0410609577,31.6682106 L0.0410609577,31.6682106 C0.154621015,32.1267627 0.477621176,33.5512866 1.06650147,34.8258606 L1.06650147,34.8258606 C1.10526149,34.909538 1.14198151,34.9898683 1.18482153,35.0701985 L1.18482153,35.0701985 C1.57106172,35.8467247 2.06338197,36.5382347 2.67062227,36.8702666 L2.67062227,36.8702666 C4.3209831,37.7746518 9.65490576,38.4675006 9.65490576,38.4675006 L9.65490576,38.4675006 C9.65490576,38.4675006 6.61598425,24.1934766 19.6039907,22.8740515 L19.6039907,22.8740515 C31.9310369,21.6202295 31.9854369,37.180877 31.9854369,37.180877 L31.9854369,37.180877 L83.2227825,34.2280693 C83.2227825,34.2280693 81.0984615,20.4440601 92.5231472,18.6714382 L92.5231472,18.6714382 C103.947153,16.9001552 105.400994,30.3802482 105.409154,32.9494788 L105.409154,32.9494788 C105.409154,32.9494788 114.336198,31.8636809 115.595559,27.4354734 L115.595559,27.4354734 C115.779159,26.7961782 115.894759,26.0323709 115.962079,25.1929194 L115.962079,25.1929194 C116.358519,20.2238212 115.004638,12.6218976 115.004638,12.6218976 L115.004638,12.6218976 C115.004638,12.6218976 114.859798,12.1774033 114.742158,11.5434634 L114.742158,11.5434634 C114.551758,10.5239381 114.423238,9.01105084 115.060398,8.04909556 L115.060398,8.04909556 C115.060398,8.04909556 95.6647488,0.172040715 79.7745008,0.0180743164 L79.7745008,0.0180743164 C78.6436603,0.00736361038 77.5332197,0 76.4363792,0 L76.4363792,0 C62.115572,0 50.3284461,1.24445015 32.5219572,11.5213726 L32.5219572,11.5213726 Z" id="path-1"></path>
        <path d="M27.3591337,1.57581262 C11.985686,4.46033963 0,15.4307803 0,15.4307803 L0,15.4307803 C20.1001301,13.2016146 54.4700672,10.1142536 64.2981121,8.33359869 L64.2981121,8.33359869 C74.1268371,6.55428265 73.6175168,4.69262807 73.6175168,4.69262807 L73.6175168,4.69262807 C62.3363112,1.57982914 52.9291865,0 43.6295018,0 L43.6295018,0 C38.2826591,0 32.9711765,0.522146918 27.3591337,1.57581262 L27.3591337,1.57581262 Z" id="path-3"></path>
        <path d="M34.594884,0.13790034 C30.8650821,0.35211446 27.1223602,0.820038428 23.1504782,1.56510191 L23.1504782,1.56510191 C15.3413543,3.03046038 8.42779088,6.66138971 4.00370867,9.45085921 L4.00370867,9.45085921 C2.62126798,10.3224429 1.38910736,11.1685887 0.333066834,11.9317265 L0.333066834,11.9317265 C-0.332653499,12.4137083 0.0739867043,13.4506385 0.896787116,13.3642834 L0.896787116,13.3642834 C6.38302986,12.7818888 12.5247929,12.1606678 18.9324361,11.5113313 L18.9324361,11.5113313 C35.8188846,9.80230425 53.2806133,8.03503776 59.8106566,6.853513 L59.8106566,6.853513 C59.8630166,6.84347172 59.9153766,6.83343043 59.9684167,6.82405856 L59.9684167,6.82405856 C62.4082579,6.37554775 62.4687779,2.95280776 60.0445767,2.42664433 L60.0445767,2.42664433 C52.4469329,0.77250967 45.8244096,0 39.3460463,0 L39.3460463,0 C37.7575655,0 36.1779248,0.0468593388 34.594884,0.13790034 L34.594884,0.13790034 Z" id="path-5"></path>
        <path d="M46.8370634,0.105098803 C46.1679431,0.141247435 45.3539827,0.184759679 44.4217022,0.234296694 L44.4217022,0.234296694 C43.4880617,0.28316429 42.4367812,0.339395496 41.2896206,0.407006828 L41.2896206,0.407006828 C40.1417801,0.473948741 38.8994194,0.545576587 37.5829388,0.621220948 L37.5829388,0.621220948 C36.2684981,0.697534728 34.8812974,0.775187347 33.4478567,0.866897767 L33.4478567,0.866897767 C30.5796153,1.04697151 27.5202938,1.23708654 24.4616522,1.42854041 L24.4616522,1.42854041 C21.4030107,1.63539092 18.3430092,1.84023317 15.4761277,2.0336953 L15.4761277,2.0336953 C14.043367,2.12674456 12.6582063,2.22849627 11.3437657,2.3242232 L11.3437657,2.3242232 C10.030685,2.41794188 8.78832439,2.50898288 7.64116382,2.59132143 L7.64116382,2.59132143 C6.49536325,2.67165173 5.44408272,2.75265144 4.51384226,2.82494871 L4.51384226,2.82494871 C3.58156179,2.89590714 2.76964138,2.95816311 2.10188105,3.00970839 L2.10188105,3.00970839 C0.765000383,3.11681545 0,3.17706317 0,3.17706317 L0,3.17706317 C0,3.17706317 0.766360383,3.13890628 2.10528105,3.07129495 L2.10528105,3.07129495 C2.77576139,3.03648515 3.58904179,2.99297291 4.52064226,2.94343589 L4.52064226,2.94343589 C5.45428273,2.89523772 6.50624325,2.83967593 7.65408383,2.77072576 L7.65408383,2.77072576 L11.3607657,2.55718106 C12.6738463,2.4815367 14.061047,2.40388408 15.4951677,2.31083482 L15.4951677,2.31083482 C18.3634092,2.13209991 21.4227307,1.93997662 24.4834122,1.74852275 L24.4834122,1.74852275 C27.5406938,1.54234166 30.5993353,1.33682999 33.4668967,1.14336787 L33.4668967,1.14336787 C34.8996574,1.05031861 36.2861781,0.947897481 37.5992588,0.853509385 L37.5992588,0.853509385 C38.9130195,0.758451869 40.1547001,0.668749706 41.3011807,0.585741734 L41.3011807,0.585741734 C42.4476612,0.505411439 43.4975817,0.425081144 44.4298622,0.35211446 L44.4298622,0.35211446 C45.3607827,0.280486613 46.1720231,0.219569473 46.8418234,0.167354781 L46.8418234,0.167354781 C48.1780241,0.0609171404 48.9423445,0 48.9423445,0 L48.9423445,0 C48.9423445,0 48.1766641,0.0381568901 46.8370634,0.105098803 L46.8370634,0.105098803 Z" id="path-7"></path>
        <path d="M1.35084815,0.19881748 C0.367567659,0.965302378 -0.197512624,1.87102645 0.0636075066,3.17572433 L0.0636075066,3.17572433 C0.0996475247,3.35713691 0.592647771,4.54870296 0.545047747,4.57614914 L0.545047747,4.57614914 C7.36069116,0.682138089 5.66205031,0 3.63428929,0 L3.63428929,0 C2.56056876,0 1.39436817,0.19145387 1.35084815,0.19881748 L1.35084815,0.19881748 Z" id="path-9"></path>
        <path d="M1.23058994,19.6273687 L1.44751005,19.6052779 C-0.187890768,3.57202045 0.275869464,0.0656030743 0.281309467,0.0307932798 L0.281309467,0.0307932798 L0.0664293592,0 C0.0609893564,0.0348097945 -0.408890878,3.54323543 1.23058994,19.6273687 L1.23058994,19.6273687 Z" id="path-11"></path>
        <path d="M0.0611289951,32.3242413 L0.278049104,32.3115223 C-0.20883114,24.1164934 2.39081016,0.263751135 2.41733017,0.0220908311 L2.41733017,0.0220908311 L2.20177007,0 C2.17593005,0.238982628 -0.427791249,24.1124769 0.0611289951,32.3242413 L0.0611289951,32.3242413 Z" id="path-13"></path>
        <path d="M0,5.95649138 L7.66836383,3.49302899 C7.47796374,2.47350367 7.34944367,0.960616445 7.98524399,0 L7.98524399,0 C7.88052394,0.064264236 1.29200065,4.15173741 0,5.95649138 L0,5.95649138 Z" id="path-15"></path>
        <path d="M4.82295666,0.601138374 C3.67307608,1.10855807 2.60343555,1.77931603 1.63375506,2.57458596 L1.63375506,2.57458596 L0.00515424929,3.91141595 C-0.17300584,4.56476901 4.3000364,5.36338603 8.37255843,4.61564487 L8.37255843,4.61564487 C8.92199871,4.51456258 7.64427807,0.402990313 7.64427807,0.402990313 L7.64427807,0.402990313 C7.64427807,0.402990313 7.62591806,0 6.93027771,0 L6.93027771,0 C6.5154775,0 5.85995718,0.143255693 4.82295666,0.601138374 L4.82295666,0.601138374 Z" id="path-17"></path>
        <path d="M0,5.87214457 L3.27148164,5.79181427 L7.54732377,4.69262807 L8.004284,2.58931318 L6.41784321,0.975343665 L1.43548072,0 C5.21968261,3.8397881 0,5.87214457 0,5.87214457 L0,5.87214457 Z" id="path-19"></path>
        <path d="M11.2805256,0.0174048973 C11.2805256,0.0174048973 11.7776059,6.06962321 11.7789659,6.08635869 L11.7789659,6.08635869 C12.3522062,8.44070575 11.2492456,13.5483737 11.0942055,14.2439001 L11.0942055,14.2439001 C10.6392853,14.2733546 8.43880422,14.4875687 6.12612306,15.9167785 L6.12612306,15.9167785 C3.74476187,17.3888312 0.749360375,20.4889112 0,26.8945828 L0,26.8945828 L0.13940007,29.2609794 L0.357000179,29.2482604 L0.217600109,26.9099794 C0.956760478,20.6000347 3.89572195,17.5501612 6.23356312,16.1022076 L6.23356312,16.1022076 C8.76724438,14.5330892 11.1608456,14.4547672 11.1846456,14.4527589 L11.1846456,14.4527589 L11.2676056,14.4507507 L11.2873256,14.3710898 C11.3424057,14.1354542 12.6112863,8.61341588 11.992486,6.04418528 L11.992486,6.04418528 L11.4960857,0 L11.2805256,0.0174048973 Z" id="path-21"></path>
        <path d="M9.58529389,0.0174048973 C3.97393108,0.340734335 -0.310751062,5.08356884 0.0176891018,10.6076155 L0.0176891018,10.6076155 C0.346129266,16.1316621 5.16461168,20.3503414 10.7759745,20.0263425 L10.7759745,20.0263425 C16.3886973,19.7030131 20.6726994,14.9601786 20.3435793,9.43613199 L20.3435793,9.43613199 C20.0266991,4.11157227 15.5400569,-0.000669419125 10.1898142,0 L10.1898142,0 C9.98921409,0 9.78793399,0.005355353 9.58529389,0.0174048973 L9.58529389,0.0174048973 Z" id="path-23"></path>
        <path d="M5.65713997,0.010710706 C2.35029831,0.200825738 -0.183382953,3.00502245 0.0104171443,6.26040766 L0.0104171443,6.26040766 C0.204217241,9.5171317 3.05273867,12.0113874 6.35958032,11.8206029 L6.35958032,11.8206029 C9.66778197,11.6298185 12.2014632,8.82562175 12.0069831,5.56956712 L12.0069831,5.56956712 C11.820663,2.43066084 9.16662172,0 6.01142014,0 L6.01142014,0 C5.89446009,0 5.77546003,0.00334709563 5.65713997,0.010710706 L5.65713997,0.010710706 Z" id="path-25"></path>
        <path d="M0.545629905,0.00133883825 C0.232829749,0.0194131546 -0.0174103766,0.295883253 0.000949632577,0.603816051 L0.000949632577,0.603816051 C0.0193096418,0.911748848 0.300149782,1.15809509 0.612949939,1.14002077 L0.612949939,1.14002077 C0.927110096,1.12194645 1.17599022,0.845476355 1.15763021,0.537543557 L1.15763021,0.537543557 C1.1399502,0.240321466 0.878830072,0 0.578269921,0 L0.578269921,0 C0.567389916,0 0.55650991,0.000669419125 0.545629905,0.00133883825 L0.545629905,0.00133883825 Z" id="path-27"></path>
        <path d="M0.24072012,0.319982342 L0.43928022,0.351445041 C0.393040197,0.323329437 0.349520175,0.317974084 0.306680153,0.317974084 L0.306680153,0.317974084 C0.284240142,0.317974084 0.262480131,0.319312923 0.24072012,0.319982342 L0.24072012,0.319982342 Z" id="path-29"></path>
        <polygon id="path-31" points="0 0 16.9085596 0 16.9085596 12.8268399 0 12.8268399"></polygon>
        <polygon id="path-33" points="0 0 11.916326 0 11.916326 5.59426869 0 5.59426869"></polygon>
    </defs>
    <g id="Own-Damage-Policy" stroke="none" stroke-width="1" fill="none" fill-rule="evenodd">
        <g id="Group-92" transform="translate(6.282241, 17.000000)">
            <g id="Group-3" transform="translate(4.060303, 30.524575)">
                <mask id="mask-2" fill="white">
                    <use xlink:href="#path-1"></use>
                </mask>
                <g id="Clip-2"></g>
                <polygon id="Fill-1" fill="#8A96FF" mask="url(#mask-2)" points="-5.19976966 1.0814466 117.774212 -6.00569368 120.239213 35.4474162 -2.73476843 42.5345565"></polygon>
            </g>
            <g id="Group-6" transform="translate(33.287659, 31.516654)">
                <mask id="mask-4" fill="white">
                    <use xlink:href="#path-3"></use>
                </mask>
                <g id="Clip-5"></g>
                <polygon id="Fill-4" fill="#263339" mask="url(#mask-4)" points="-4.36601018 -0.722637946 76.4268702 -5.37911738 77.5978308 14.3118462 -3.1950496 18.9683256"></polygon>
            </g>
            <g id="Group-9" transform="translate(37.637755, 32.262387)">
                <mask id="mask-6" fill="white">
                    <use xlink:href="#path-5"></use>
                </mask>
                <g id="Clip-8"></g>
                <polygon id="Fill-7" fill="#547296" mask="url(#mask-6)" points="-4.21253144 -0.978757703 64.672183 -4.94841311 65.7384235 12.9806393 -3.14629091 16.9509641"></polygon>
            </g>
            <g id="Group-12" transform="translate(37.512501, 63.014832)">
                <mask id="mask-8" fill="white">
                    <use xlink:href="#path-7"></use>
                </mask>
                <g id="Clip-11"></g>
                <polygon id="Fill-10" fill="#1B538B" mask="url(#mask-8)" points="-3.61576581 -0.358407 52.1354221 -3.5716188 52.5583823 3.53627347 -3.1928056 6.74948527"></polygon>
            </g>
            <g id="Group-15" transform="translate(3.918757, 53.202487)">
                <mask id="mask-10" fill="white">
                    <use xlink:href="#path-9"></use>
                </mask>
                <g id="Clip-14"></g>
                <polygon id="Fill-13" fill="#D2D2D2" mask="url(#mask-10)" points="-3.73854639 -2.94531027 8.57557976 -3.65489454 9.23450009 7.42867792 -3.07962606 8.13826219"></polygon>
            </g>
            <polygon id="Fill-16" fill="#263339" points="90.1898155 40.3938211 91.4906561 40.4487134 91.8150163 33.1078633 90.5141756 33.0523015"></polygon>
            <polygon id="Fill-17" fill="#1B538B" points="60.1179564 46.9126245 60.1913965 47.6228782 65.8075193 47.053872 65.7340792 46.3442877"></polygon>
            <polygon id="Fill-18" fill="#1B538B" points="87.8140303 44.1086956 87.8881503 44.8176104 93.5042731 44.249943 93.4301531 43.5396893"></polygon>
            <g id="Group-21" transform="translate(36.860591, 46.500932)">
                <mask id="mask-12" fill="white">
                    <use xlink:href="#path-11"></use>
                </mask>
                <g id="Clip-20"></g>
                <polygon id="Fill-19" fill="#1B538B" mask="url(#mask-12)" points="-3.83282859 -3.1279278 3.47649506 -3.54899243 5.04117585 22.760518 -2.26814781 23.1815827"></polygon>
            </g>
            <polygon id="Fill-22" fill="#263339" points="67.0274399 32.6489765 65.8251993 43.0484026 69.7352012 42.8228084 70.7082817 32.272763"></polygon>
            <g id="Group-25" transform="translate(66.628827, 31.829942)">
                <mask id="mask-14" fill="white">
                    <use xlink:href="#path-13"></use>
                </mask>
                <g id="Clip-24"></g>
                <polygon id="Fill-23" fill="#1B538B" mask="url(#mask-14)" points="-5.44041376 -2.91257567 5.61095177 -3.54919326 7.91683292 35.2242319 -3.1345326 35.8608495"></polygon>
            </g>
            <g id="Group-28" transform="translate(111.134098, 38.575009)">
                <mask id="mask-16" fill="white">
                    <use xlink:href="#path-15"></use>
                </mask>
                <g id="Clip-27"></g>
                <polygon id="Fill-26" fill="#1B538B" mask="url(#mask-16)" points="-3.91856996 -2.66696579 11.1808376 -3.53721066 11.903678 8.62345717 -3.1957296 9.49370203"></polygon>
            </g>
            <g id="Group-31" transform="translate(111.020824, 40.625440)">
                <mask id="mask-18" fill="white">
                    <use xlink:href="#path-17"></use>
                </mask>
                <g id="Clip-30"></g>
                <polygon id="Fill-29" fill="#F18D1C" mask="url(#mask-18)" points="-3.80359566 -2.73745563 11.452892 -3.61640294 12.1369723 7.88756473 -3.11951531 8.76718146"></polygon>
            </g>
            <g id="Group-34" transform="translate(92.937969, 33.933257)">
                <mask id="mask-20" fill="white">
                    <use xlink:href="#path-19"></use>
                </mask>
                <g id="Clip-33"></g>
                <polygon id="Fill-32" fill="#263339" mask="url(#mask-20)" points="-3.93570597 -3.04284463 11.0236215 -3.90505647 11.7702619 8.65525458 -3.18906559 9.51679699"></polygon>
            </g>
            <g id="Group-37" transform="translate(85.700725, 33.789332)">
                <mask id="mask-22" fill="white">
                    <use xlink:href="#path-21"></use>
                </mask>
                <g id="Clip-36"></g>
                <polygon id="Fill-35" fill="#1B538B" mask="url(#mask-22)" points="-5.14882657 -2.39344114 14.9132235 -3.54952797 17.0055845 31.6418354 -3.05578553 32.7979223"></polygon>
            </g>
            <g id="Group-40" transform="translate(88.018157, 49.313831)">
                <mask id="mask-24" fill="white">
                    <use xlink:href="#path-23"></use>
                </mask>
                <g id="Clip-39"></g>
                <polygon id="Fill-38" fill="#282D27" mask="url(#mask-24)" points="-4.17022899 -2.54298937 22.9441046 -4.10541361 24.5312254 22.5870046 -2.5831082 24.1494288"></polygon>
            </g>
            <g id="Group-43" transform="translate(92.070751, 53.315618)">
                <mask id="mask-26" fill="white">
                    <use xlink:href="#path-25"></use>
                </mask>
                <g id="Clip-42"></g>
                <polygon id="Fill-41" fill="#90939E" mask="url(#mask-26)" points="-3.93358483 -2.78967032 14.8514246 -3.87212105 15.9516651 14.6205823 -2.83402428 15.703033"></polygon>
            </g>
            <g id="Group-46" transform="translate(97.499821, 58.660930)">
                <mask id="mask-28" fill="white">
                    <use xlink:href="#path-27"></use>
                </mask>
                <g id="Clip-45"></g>
                <polygon id="Fill-44" fill="#282D27" mask="url(#mask-28)" points="-3.62576418 -3.11125927 4.31935979 -3.56914195 4.78448002 4.25235111 -3.16064395 4.71023379"></polygon>
            </g>
            <g id="Group-49" transform="translate(48.380267, 35.275442)">
                <mask id="mask-30" fill="white">
                    <use xlink:href="#path-29"></use>
                </mask>
                <g id="Clip-48"></g>
                <polygon id="Fill-47" fill="#FCD4A1" mask="url(#mask-30)" points="-3.35226568 -2.82595284 3.63201782 -3.22827373 4.03185802 3.49738022 -2.95242548 3.89970111"></polygon>
            </g>
            <g id="Group-91" transform="translate(0.000000, 0.000000)">
                <path d="M83.8335123,13.0309127 C83.8335123,20.2278377 77.9073093,26.0618254 70.5966257,26.0618254 C63.285942,26.0618254 57.3597391,20.2278377 57.3597391,13.0309127 C57.3597391,5.83398768 63.285942,0 70.5966257,0 C77.9073093,0 83.8335123,5.83398768 83.8335123,13.0309127" id="Fill-53" fill="#DEE4FF"></path>
                <path d="M33.5480992,40.5398883 C29.274977,39.1615544 27.1384159,37.6386258 31.263978,32.7063457 C35.3902201,27.7740656 32.0010984,23.7849971 29.8645373,21.1742625 C27.7272962,18.5628585 34.8006598,12.9055974 34.8006598,12.9055974 C34.8006598,12.9055974 31.4115381,16.894666 32.2220985,20.0134897 C33.0326589,23.1323134 36.7162207,27.4119099 37.0106609,30.7482948 C37.305781,34.0846797 32.2955385,34.3745382 31.4849781,36.1879946 C30.6744177,38.001451 32.5899787,39.5966768 33.5480992,40.5398883" id="Fill-55" fill="#6F8694"></path>
                <path d="M30.2001175,45.2133041 C30.6788377,44.7795205 31.175238,44.3504228 31.6838782,43.9253417 C32.4760786,44.2781256 33.1288789,44.6898183 33.0241589,45.0513046 C32.7718788,45.9101694 24.6540347,48.9955221 23.7693543,48.8629771 C22.8846738,48.7304322 17.9084313,49.1213729 16.8619108,49.5759085 C15.4366301,50.1951212 10.9826279,51.910173 10.9826279,51.910173 L6.38038557,52.5943193 C6.40418558,52.5066254 6.42526559,52.427634 6.4504256,52.3560061 C6.4551856,52.344626 6.45994561,52.3298988 6.46402561,52.3178492 C6.48918562,52.2442131 6.51502563,52.1812877 6.54494565,52.1304119 C6.79042577,51.6839093 13.4598691,49.6769908 14.5750697,49.215761" id="Fill-57" fill="#2C3352"></path>
                <path d="M33.221087,45.2599626 C33.221087,45.2599626 20.4051206,41.8077682 18.0217194,41.957718 C15.6383182,42.1076679 10.5736757,49.1579902 10.5736757,49.1579902 C10.5736757,49.1579902 11.3590761,49.014065 11.8289563,48.6124136 C12.2995165,48.2114315 17.5185191,44.2933214 18.6303197,43.7611332 C19.7421202,43.2282755 31.9161663,45.9253652 32.2765665,45.8918942 C32.6362867,45.8584233 33.221087,45.2599626 33.221087,45.2599626" id="Fill-59" fill="#8A96FF"></path>
                <path d="M15.0567819,72.7970538 L14.6753017,72.832533 C14.3434615,72.8633263 14.0150214,72.8934502 13.6954212,72.920227 C13.1106209,72.9717722 12.5441806,73.0159539 11.9995004,73.0514331 C10.6639797,73.1404658 9.46989911,73.1846475 8.47369861,73.1371187 C7.88685832,72.8271777 7.28233802,72.4489559 7.11165793,72.150395 C7.01577789,71.984379 6.87637782,71.5137774 6.71385773,70.8965729 C6.26233751,69.1868765 5.62449719,66.3552336 5.235537,65.6951863 C4.94925685,65.2085186 4.63237669,64.4975955 4.40185658,63.9480024 C4.20941648,63.4820867 4.07477641,63.1306417 4.07477641,63.1306417 C4.07477641,63.1306417 4.09177642,63.1172533 4.11897644,63.0971707 C4.13869645,63.0811047 4.16589646,63.0610221 4.19649648,63.0349147 L8.32613854,62.4210574 C8.49953863,62.4980406 8.67021871,62.581718 8.8388588,62.6767755 L8.8415788,62.6761061 C10.7782198,63.7003173 12.3850606,65.4856581 13.305781,67.2770237 C13.9715014,68.5730192 14.6664617,71.1924562 15.0567819,72.7970538" id="Fill-61" fill="#6783DB"></path>
                <g id="Group-65" transform="translate(0.000407, 61.173160)">
                    <mask id="mask-32" fill="white">
                        <use xlink:href="#path-31"></use>
                    </mask>
                    <g id="Clip-64"></g>
                    <path d="M16.9085596,10.7845091 C16.9085596,10.7845091 9.74203601,12.6448249 8.24331526,12.8161962 C7.53475491,12.8978653 6.77655453,12.5055857 6.17883423,12.0704632 C5.50767389,11.584465 5.03167366,11.0435743 5.03167366,11.0435743 L4.99223364,10.9846654 L3.47039287,8.66512816 C3.47039287,8.66512816 2.35043231,9.24015918 2.15867222,8.9958212 C1.96623212,8.75215264 0.0363911575,6.1394098 0.00103113981,5.54563503 C-0.0343288779,4.95186027 0.847631563,3.36935346 1.43175186,2.73943006 C1.43175186,2.73943006 11.4515569,-0.391443189 12.8081575,0.0410015662 C13.1399977,2.93289219 14.0035981,5.39568515 14.8549586,7.23257123 C15.8899191,9.47780297 16.9085596,10.7845091 16.9085596,10.7845091" id="Fill-63" fill="#7889EF" mask="url(#mask-32)"></path>
                </g>
                <path d="M12.8088368,61.2144294 C12.8088368,61.2144294 4.45911261,64.0788739 0.00103037777,66.7190629 C-0.0343296399,66.1252881 0.848310801,64.5421119 1.43175109,63.9128579 C1.43175109,63.9128579 11.4522361,60.7819847 12.8088368,61.2144294" id="Fill-66" fill="#7889EF"></path>
                <path d="M6.17937747,73.2433556 C5.50753713,72.7580267 5.03221689,72.2164666 5.03221689,72.2164666 L3.47025611,69.8386899 C6.23037749,68.4878021 7.62981819,71.1306688 7.94533835,71.9634262 C8.15137845,72.502978 7.00829788,72.9775962 6.17937747,73.2433556" id="Fill-68" fill="#6783DB"></path>
                <g id="Group-72" transform="translate(4.992641, 68.405731)">
                    <mask id="mask-34" fill="white">
                        <use xlink:href="#path-33"></use>
                    </mask>
                    <g id="Clip-71"></g>
                    <path d="M11.916326,3.55193788 C11.916326,3.55193788 4.74980237,5.41225363 3.25108163,5.58362492 C2.54252127,5.66529406 1.78432089,5.27301445 1.18660059,4.83789202 C0.515440258,4.35189373 0.0394400197,3.81100308 0.0394400197,3.81100308 L0,3.7520942 C3.82568191,3.13288151 8.38032419,0.800625274 9.86272493,0 C10.8976854,2.24523175 11.916326,3.55193788 11.916326,3.55193788" id="Fill-70" fill="#6F85E2" mask="url(#mask-34)"></path>
                </g>
                <path d="M33.6871592,66.9773248 C33.3464791,67.9011232 32.8595988,68.763335 32.2543985,69.5318282 L17.7785513,70.3665938 C17.0618309,69.6476377 16.4627506,68.8148803 16.0085104,67.8957678 C15.5127901,66.9016804 15.18775,65.8011554 15.0769099,64.6323496 C14.5791497,59.4276159 18.4605916,54.8086239 23.7475943,54.3186091 C29.0352769,53.8285943 33.7238792,57.6496387 34.2216395,62.8550418 C34.3603596,64.2996483 34.1611195,65.7007425 33.6871592,66.9773248" id="Fill-73" fill="#282D27"></path>
                <path d="M34.5222676,68.104158 C34.5433476,68.4589501 34.4161876,68.7923209 34.1904275,69.0386671 C33.9680674,69.2890298 33.6457472,69.4516987 33.286027,69.4724507 L16.4016186,70.4457861 C15.6774182,70.4872901 15.0538579,69.9417135 15.0110179,69.2287821 C14.9899379,68.87399 15.1170979,68.5406193 15.343538,68.294273 C15.5169381,68.1021497 15.7454182,67.9595635 16.0085784,67.8959686 C16.0867784,67.8765555 16.1649785,67.8651754 16.2479385,67.85982 L33.1323469,66.887154 C33.327507,66.8757739 33.5172271,66.9058978 33.6872272,66.9775256 C34.1530275,67.1542523 34.4909876,67.5833499 34.5222676,68.104158" id="Fill-75" fill="#282D27"></path>
                <path d="M30.6287217,63.1874753 C30.9401618,66.438844 28.5152806,69.3227016 25.213199,69.6292956 C21.9104373,69.9358895 18.9809959,67.5487409 18.6695557,64.2973723 C18.3581156,61.046673 20.7829968,58.1628154 24.0850784,57.8562214 C27.3878401,57.5496275 30.3172815,59.9361067 30.6287217,63.1874753" id="Fill-77" fill="#A9ABB6"></path>
                <path d="M29.8988773,63.2552206 C30.1722375,66.1096237 28.0438364,68.6413668 25.1443149,68.9104733 C22.2447935,69.1795798 19.6730322,67.084298 19.3996721,64.2298948 C19.1263119,61.3754917 21.254713,58.8437485 24.1542345,58.574642 C27.0537559,58.3055356 29.6255172,60.4008174 29.8988773,63.2552206" id="Fill-79" fill="#90939E"></path>
                <path d="M70.5892817,19.9856419 C69.8854813,19.9856419 69.181681,19.984303 68.4778806,19.9856419 C67.8529603,19.9869807 67.24504,19.9012951 66.6738397,19.6388828 C65.7741993,19.2251817 65.267599,18.5082339 65.0554389,17.5737248 C64.9078788,16.9243882 64.9316788,16.272374 65.0357189,15.6196903 C65.208439,14.5305454 65.6103192,13.5183837 66.1067194,12.5390235 C66.6309997,11.504771 67.27836,10.5475016 68.0012004,9.63843045 C68.0372404,9.59290995 68.1154404,9.55475306 68.1739205,9.55475306 C69.7719213,9.55073654 71.3699221,9.55073654 72.9679229,9.55475306 C73.0270829,9.55542248 73.1059629,9.59290995 73.1426829,9.63843045 C74.1796835,10.9163516 75.0854439,12.274603 75.7396042,13.7848125 C76.1510045,14.7333794 76.4502046,15.7114008 76.4651646,16.7543557 C76.4746846,17.4070394 76.3556846,18.0329463 75.9864444,18.5892336 C75.5192841,19.2927931 74.8304438,19.682395 74.0151234,19.8403779 C73.5384431,19.9320883 73.0454429,19.9628816 72.5578827,19.9802865 C71.9023623,20.0030468 71.245482,19.9856419 70.5892817,19.9856419" id="Fill-81" fill="#C4B9FD"></path>
                <path d="M70.5892817,19.9856419 C69.8854813,19.9856419 69.181681,19.984303 68.4778806,19.9856419 C67.8529603,19.9869807 67.24504,19.9012951 66.6738397,19.6388828 C65.7741993,19.2251817 65.267599,18.5082339 65.0554389,17.5737248 C64.9078788,16.9243882 64.9316788,16.272374 65.0357189,15.6196903 C65.208439,14.5305454 65.6103192,13.5183837 66.1067194,12.5390235 C66.6309997,11.504771 67.27836,10.5475016 68.0012004,9.63843045 C68.0372404,9.59290995 68.1154404,9.55475306 68.1739205,9.55475306 C69.7719213,9.55073654 71.3699221,9.55073654 72.9679229,9.55475306 C73.0270829,9.55542248 73.1059629,9.59290995 73.1426829,9.63843045 C74.1796835,10.9163516 75.0854439,12.274603 75.7396042,13.7848125 C76.1510045,14.7333794 76.4502046,15.7114008 76.4651646,16.7543557 C76.4746846,17.4070394 76.3556846,18.0329463 75.9864444,18.5892336 C75.5192841,19.2927931 74.8304438,19.682395 74.0151234,19.8403779 C73.5384431,19.9320883 73.0454429,19.9628816 72.5578827,19.9802865 C71.9023623,20.0030468 71.245482,19.9856419 70.5892817,19.9856419 Z" id="Stroke-83" stroke="#332195" stroke-width="0.54272"></path>
                <path d="M70.5686097,8.58543416 C69.8362493,8.58543416 69.1045689,8.58342591 68.3722086,8.5874549 C68.2742885,8.58811184 68.2185285,8.56200449 68.1736485,8.47163291 C67.8241283,7.77610644 67.4684881,7.08392707 67.1162479,6.38973943 C66.9748079,6.11126108 67.0407679,5.93453443 67.320248,5.79730351 C67.8832883,5.52016399 68.4735286,5.34009024 69.1045689,5.4190817 C69.4479691,5.46259394 69.7852493,5.57907287 70.1150494,5.69019645 C70.4870096,5.81537782 70.8399298,5.99946808 71.21529,6.1085834 C71.8517703,6.29468192 72.4855306,6.19761614 73.1070509,6.00482344 C73.260731,5.95729468 73.4130511,5.90374115 73.5640112,5.84817936 C73.7727713,5.77119616 73.8842913,5.79060932 74.0155314,5.92784024 C74.1467715,6.06507116 74.1154914,6.20966569 74.0413714,6.35559906 C73.8040513,6.82419245 73.5653712,7.29144699 73.326691,7.75937096 C73.204971,7.99768417 73.0791709,8.23398912 72.9635709,8.47431059 C72.9234508,8.5586574 72.8744908,8.58811184 72.7792908,8.5874549 C72.0421704,8.58342591 71.30573,8.58543416 70.5686097,8.58543416" id="Fill-85" fill="#C4B9FD"></path>
                <path d="M70.5686097,8.58543416 C69.8362493,8.58543416 69.1045689,8.58342591 68.3722086,8.5874549 C68.2742885,8.58811184 68.2185285,8.56200449 68.1736485,8.47163291 C67.8241283,7.77610644 67.4684881,7.08392707 67.1162479,6.38973943 C66.9748079,6.11126108 67.0407679,5.93453443 67.320248,5.79730351 C67.8832883,5.52016399 68.4735286,5.34009024 69.1045689,5.4190817 C69.4479691,5.46259394 69.7852493,5.57907287 70.1150494,5.69019645 C70.4870096,5.81537782 70.8399298,5.99946808 71.21529,6.1085834 C71.8517703,6.29468192 72.4855306,6.19761614 73.1070509,6.00482344 C73.260731,5.95729468 73.4130511,5.90374115 73.5640112,5.84817936 C73.7727713,5.77119616 73.8842913,5.79060932 74.0155314,5.92784024 C74.1467715,6.06507116 74.1154914,6.20966569 74.0413714,6.35559906 C73.8040513,6.82419245 73.5653712,7.29144699 73.326691,7.75937096 C73.204971,7.99768417 73.0791709,8.23398912 72.9635709,8.47431059 C72.9234508,8.5586574 72.8744908,8.58811184 72.7792908,8.5874549 C72.0421704,8.58342591 71.30573,8.58543416 70.5686097,8.58543416 Z" id="Stroke-87" stroke="#332195" stroke-width="0.54272"></path>
                <path d="M69.0059009,12.158124 L72.4113426,12.158124 C72.4303826,12.1608017 72.4399026,12.1701736 72.4399026,12.1862396 L72.4399026,12.5055526 C72.4399026,12.5242963 72.4303826,12.5336682 72.4113426,12.5336682 L71.1295419,12.5336682 L71.1295419,12.5624532 C71.312462,12.6588495 71.4539021,12.857667 71.5545422,13.1575668 L71.5688222,13.2599879 L72.4113426,13.2599879 C72.4303826,13.2626656 72.4399026,13.2720375 72.4399026,13.2887729 L72.4399026,13.6074164 C72.4399026,13.6268296 72.4303826,13.6362015 72.4113426,13.6362015 L71.6014622,13.6362015 C71.6014622,13.9930019 71.3791021,14.339761 70.9357418,14.6778176 C70.5420216,14.9000648 70.2625415,15.0111883 70.0966214,15.0111883 C70.0966214,15.0205602 70.0871014,15.0252461 70.0680614,15.0252461 L71.8965823,17.356833 L71.8965823,17.385618 L71.201622,17.385618 C71.194822,17.385618 70.4876216,16.4825716 69.0813809,14.6778176 L69.0813809,14.6637598 L69.301021,14.6637598 C70.0789414,14.6637598 70.5454216,14.3886286 70.7011417,13.8376966 C70.7113417,13.7720935 70.7161017,13.71854 70.7161017,13.6783749 L70.7161017,13.6362015 L69.0059009,13.6362015 C68.9868609,13.6362015 68.9773409,13.6268296 68.9773409,13.6074164 L68.9773409,13.2887729 C68.9793809,13.2700292 68.9889009,13.2599879 69.0059009,13.2599879 L70.7011417,13.2599879 C70.6440217,13.0451044 70.5216216,12.870386 70.3339415,12.7358327 C70.0748614,12.6012795 69.8389013,12.5336682 69.6253812,12.5336682 L69.0059009,12.5336682 C68.9868609,12.5336682 68.9773409,12.5242963 68.9773409,12.5055526 L68.9773409,12.1862396 C68.9793809,12.1674959 68.9889009,12.158124 69.0059009,12.158124" id="Fill-89" fill="#332195"></path>
            </g>
        </g>
    </g>
</svg>