<?xml version="1.0" encoding="UTF-8"?>
<svg width="132px" height="108px" viewBox="0 0 132 108" version="1.1" xmlns="http://www.w3.org/2000/svg" xmlns:xlink="http://www.w3.org/1999/xlink">
    <title>Comprehensive Policy</title>
    <defs>
        <path d="M33.8849436,9.32582493 L27.5082754,12.0229534 C27.5082754,12.0229534 10.9915471,14.5012864 3.55244339,17.9527195 L3.55244339,17.9527195 C3.55244339,17.9527195 2.58385291,18.313327 1.71595747,18.9447279 L1.71595747,18.9447279 C1.03232713,19.443771 0.41308682,20.1069107 0.380891804,20.901733 L0.380891804,20.901733 C0.378151802,20.9766908 0.376781802,21.0529991 0.375411801,21.125931 L0.375411801,21.125931 C0.371986799,21.9052215 0.508301867,22.6392673 0.645301936,23.3071341 L0.645301936,23.3071341 C0.806277016,24.0992552 0.966567097,24.7975103 0.89258706,25.3580052 L0.89258706,25.3580052 C0.745996986,26.4364514 -0.130118452,26.9395463 0.0164716215,27.7303168 L0.0164716215,27.7303168 C0.102781665,28.1982963 0.343216785,29.6515313 0.857652042,30.969032 L0.857652042,30.969032 C0.89258706,31.0554697 0.924782076,31.138531 0.962457094,31.2222676 L0.962457094,31.2222676 C1.30564227,32.0272193 1.75842749,32.7518109 2.34889779,33.1211973 L2.34889779,33.1211973 C3.95522359,34.127387 9.27767625,35.1356025 9.27767625,35.1356025 L9.27767625,35.1356025 C9.27767625,35.1356025 7.07471515,20.5843444 20.2143917,20.0083177 L20.2143917,20.0083177 C32.686193,19.4620039 31.8100775,35.1356025 31.8100775,35.1356025 L31.8100775,35.1356025 L83.5132184,35.1356025 C83.5132184,35.1356025 82.2007577,21.1306581 93.7964435,20.0083177 L93.7964435,20.0083177 C105.390074,18.8886784 106.04562,32.5471965 105.901085,35.1356025 L105.901085,35.1356025 C105.901085,35.1356025 114.943089,34.5602511 116.474065,30.1742097 L116.474065,30.1742097 C116.69669,29.5414582 116.859035,28.7783747 116.97754,27.9369571 L116.97754,27.9369571 C117.672815,22.9559806 116.76656,15.2218262 116.76656,15.2218262 L116.76656,15.2218262 C116.76656,15.2218262 116.646685,14.7653267 116.56654,14.1204199 L116.56654,14.1204199 C116.43639,13.0824914 116.397345,11.5515975 117.09536,10.619015 L117.09536,10.619015 C117.09536,10.619015 98.0612556,1.5619575 82.0918427,0.484186566 L82.0918427,0.484186566 C78.0476006,0.210692062 74.2410537,0 70.4838269,0 L70.4838269,0 C59.4060013,0 48.776166,1.8361273 33.8849436,9.32582493 L33.8849436,9.32582493 Z" id="path-1"></path>
        <path d="M28.3412042,0.779290512 C12.7081264,2.79234512 0,13.1446186 0,13.1446186 L0,13.1446186 C20.3458802,12.0661723 55.0938925,10.9519355 65.0839375,9.72897609 L65.0839375,9.72897609 C75.0746675,8.5073673 74.6739423,6.6030352 74.6739423,6.6030352 L74.6739423,6.6030352 C61.6233158,2.17107365 51.0263605,0 40.033475,0 L40.033475,0 C36.2235031,0 32.3642112,0.261339192 28.3412042,0.779290512 L28.3412042,0.779290512 Z" id="path-3"></path>
        <path d="M23.9396717,0.773212856 C15.9991477,1.79560959 8.82993416,5.05120713 4.21371685,7.6031472 L4.21371685,7.6031472 C2.77110613,8.40067068 1.48125048,9.18131179 0.373604929,9.88902102 L0.373604929,9.88902102 C-0.32372542,10.3353911 0.0228847538,11.4037079 0.85447517,11.3631902 L0.85447517,11.3631902 C6.40640295,11.0957733 12.6207261,10.8270059 19.1028843,10.5447325 L19.1028843,10.5447325 C36.1867928,9.80325855 53.8529517,9.03747394 60.48992,8.22644455 L60.48992,8.22644455 C60.54335,8.2196916 60.597465,8.21226336 60.6508951,8.2061857 L60.6508951,8.2061857 C63.1312813,7.89622527 63.3970614,4.4528957 60.9906552,3.7816524 L60.9906552,3.7816524 C51.5986155,1.15880634 43.6471316,0 35.5339875,0 L35.5339875,0 C31.7705956,0 27.9784337,0.253235652 23.9396717,0.773212856 L23.9396717,0.773212856 Z" id="path-5"></path>
        <path d="M41.6877508,0.123001977 C40.5287303,0.124352567 39.2751796,0.124352567 37.946964,0.124352567 L37.946964,0.124352567 C36.6201183,0.124352567 35.2206626,0.121651387 33.7732569,0.131780813 L33.7732569,0.131780813 C30.8791304,0.145286714 27.7911489,0.160143206 24.7031674,0.175674992 L24.7031674,0.175674992 C21.6151858,0.205387976 18.5258343,0.235100959 15.6310228,0.263463352 L15.6310228,0.263463352 C14.1856721,0.274268073 12.7855314,0.295877515 11.4586857,0.316136367 L11.4586857,0.316136367 C10.1318401,0.334369334 8.87691944,0.353277596 7.71858386,0.370159973 L7.71858386,0.370159973 C6.56093328,0.385016464 5.49986775,0.405275317 4.56004728,0.424858874 L4.56004728,0.424858874 C3.61817181,0.44174125 2.7982264,0.456597742 2.12281606,0.470103643 L2.12281606,0.470103643 C0.771995386,0.499816627 0,0.516699003 0,0.516699003 L0,0.516699003 C0,0.516699003 0.771995386,0.522776659 2.12281606,0.532906085 L2.12281606,0.532906085 C2.7989114,0.53628256 3.61885681,0.539659036 4.56004728,0.543710806 L4.56004728,0.543710806 C5.50123775,0.549113167 6.56230328,0.553840232 7.72132386,0.551814347 L7.72132386,0.551814347 L11.4607407,0.551814347 C12.7862164,0.551814347 14.1863571,0.553840232 15.6337628,0.543710806 L15.6337628,0.543710806 C18.5278893,0.530204905 21.6165558,0.514673118 24.7059074,0.498466036 L24.7059074,0.498466036 C27.7925189,0.468753053 30.8811854,0.43904007 33.7759969,0.411352972 L33.7759969,0.411352972 C35.2234026,0.399872956 36.6228583,0.377588219 37.949704,0.358004662 L37.949704,0.358004662 C39.2765496,0.3390964 40.5294153,0.321538728 41.6884358,0.303981056 L41.6884358,0.303981056 C42.8460864,0.290475155 43.906467,0.269541007 44.8490274,0.24995745 L44.8490274,0.24995745 C45.7888479,0.232399778 46.6087933,0.218218582 47.2848886,0.204712681 L47.2848886,0.204712681 C48.6350243,0.174999697 49.4070197,0.157442026 49.4070197,0.157442026 L49.4070197,0.157442026 C49.4070197,0.157442026 48.6350243,0.15136437 47.2842036,0.141234944 L47.2842036,0.141234944 C46.6087933,0.138533764 45.7874779,0.135157288 44.8476574,0.131780813 L44.8476574,0.131780813 C44.005107,0.127053747 43.0673415,0.123001977 42.050801,0.123001977 L42.050801,0.123001977 C41.930926,0.123001977 41.8096809,0.123001977 41.6877508,0.123001977 L41.6877508,0.123001977 Z" id="path-7"></path>
        <path d="M1.50492332,0.085762474 C0.470572804,0.799549364 -0.152092507,1.67878355 0.0321725853,3.00843954 L0.0321725853,3.00843954 C0.0575175979,3.19347039 0.482902811,4.42183212 0.432897786,4.44749334 L0.432897786,4.44749334 C8.2638217,0.550365483 5.40463027,0 3.16741915,0 L3.16741915,0 C2.30774372,0 1.54054334,0.0817107036 1.50492332,0.085762474 L1.50492332,0.085762474 Z" id="path-9"></path>
        <path d="M0,10.1105178 C0,15.6931822 4.5915573,20.2203603 10.2537701,20.2203603 L10.2537701,20.2203603 C15.918038,20.2203603 20.5095953,15.6931822 20.5095953,10.1105178 L20.5095953,10.1105178 C20.5095953,4.52785345 15.918038,0 10.2537701,0 L10.2537701,0 C4.5915573,0 0,4.52785345 0,10.1105178 L0,10.1105178 Z" id="path-11"></path>
        <path d="M0,5.96690725 C0,9.25694483 2.71602636,11.9344898 6.05334803,11.9344898 L6.05334803,11.9344898 C9.38929969,11.9344898 12.1053261,9.25694483 12.1053261,5.96690725 L12.1053261,5.96690725 C12.1053261,2.67754496 9.38929969,0 6.05334803,0 L6.05334803,0 C2.71602636,0 0,2.67754496 0,5.96690725 L0,5.96690725 Z" id="path-13"></path>
        <path d="M0,0.5753514 C0,0.885987133 0.267150134,1.1507028 0.584305292,1.1507028 L0.584305292,1.1507028 C0.90077545,1.1507028 1.16792558,0.885987133 1.16792558,0.5753514 L1.16792558,0.5753514 C1.16792558,0.264715668 0.90077545,0 0.584305292,0 L0.584305292,0 C0.267150134,0 0,0.264715668 0,0.5753514 L0,0.5753514 Z" id="path-15"></path>
        <path d="M0.38615131,19.8327409 L0.605351419,19.8239621 C-0.0810189237,3.58244035 0.595761415,0.0783342282 0.602611418,0.0432188845 L0.602611418,0.0432188845 L0.388206311,0 C0.380671307,0.0351153437 -0.300904034,3.54057206 0.38615131,19.8327409 L0.38615131,19.8327409 Z" id="path-17"></path>
        <path d="M0,32.4276693 L0.21988511,32.4276693 C0.21988511,24.1472011 4.26001713,0.276195684 4.30180215,0.0344400486 L4.30180215,0.0344400486 L4.08671204,0 C4.04561202,0.239054455 0,24.1303188 0,32.4276693 L0,32.4276693 Z" id="path-19"></path>
        <path d="M0,5.5347184 L7.85900893,3.49937906 C7.72885886,2.46212583 7.68981384,0.930556608 8.38645919,0 L8.38645919,0 C8.27754414,0.0587506712 1.4069907,3.79245712 0,5.5347184 L0,5.5347184 Z" id="path-21"></path>
        <path d="M5.0500227,0.486212451 C3.86360211,0.931231903 2.74773655,1.54439983 1.72503104,2.28925029 L1.72503104,2.28925029 L0.00773518018,3.54057206 C-0.210779929,4.18818003 4.2396673,5.25244506 8.37980937,4.73584433 L8.37980937,4.73584433 C8.93876965,4.66561365 7.89962413,0.450421812 7.89962413,0.450421812 L7.89962413,0.450421812 C7.89962413,0.450421812 7.90578913,0 7.09063872,0 L7.09063872,0 C6.66867851,0 6.02683319,0.120877818 5.0500227,0.486212451 L5.0500227,0.486212451 Z" id="path-23"></path>
        <path d="M0,5.82982235 L3.29416665,5.93922015 L7.66035883,5.08092011 L8.24466412,2.98885598 L6.74656837,1.27090532 L1.7940159,0 C5.37040269,4.08621047 0,5.82982235 0,5.82982235 L0,5.82982235 Z" id="path-25"></path>
        <path d="M12.9526715,0.00540236057 C12.9526715,0.00540236057 13.0903565,6.12897806 13.0910415,6.14586044 L13.0910415,6.14586044 C13.5267018,8.55058619 12.1114911,13.6294804 11.914211,14.3209826 L11.914211,14.3209826 C11.4552607,14.3250343 9.22969461,14.4121474 6.81849341,15.7174928 L6.81849341,15.7174928 C4.33605217,17.06133 1.13778557,20.0096682 0.00137000069,26.4175432 L0.00137000069,26.4175432 L0,28.8080877 L0.21920011,28.8080877 L0.21920011,26.444555 C1.33986067,20.1339225 4.47853224,17.2335302 6.91439346,15.9113025 L6.91439346,15.9113025 C9.55780978,14.4769757 11.969011,14.537077 11.992986,14.537077 L11.992986,14.537077 L12.076556,14.5391029 L12.1012161,14.4600934 C12.1704011,14.2264413 13.7774119,8.73899351 13.3081867,6.11547216 L13.3081867,6.11547216 L13.1705016,0 L12.9526715,0.00540236057 Z" id="path-27"></path>
        <path d="M0,10.1098425 C0,15.6918316 4.5929273,20.219685 10.2558251,20.219685 L10.2558251,20.219685 C15.919408,20.219685 20.5109653,15.6918316 20.5109653,10.1098425 L20.5109653,10.1098425 C20.5109653,4.52717816 15.919408,0 10.2558251,0 L10.2558251,0 C4.5929273,0 0,4.52717816 0,10.1098425 L0,10.1098425 Z" id="path-29"></path>
        <path d="M0,5.96623195 C0,9.25762013 2.71602636,11.9344898 6.05266303,11.9344898 L6.05266303,11.9344898 C9.3906697,11.9344898 12.1060111,9.25762013 12.1060111,5.96623195 L12.1060111,5.96623195 C12.1060111,2.67754496 9.3906697,0 6.05266303,0 L6.05266303,0 C2.71602636,0 0,2.67754496 0,5.96623195 L0,5.96623195 Z" id="path-31"></path>
        <path d="M0,0.5753514 C0,0.886662428 0.268520134,1.1507028 0.583620292,1.1507028 L0.583620292,1.1507028 C0.90009045,1.1507028 1.16724058,0.886662428 1.16724058,0.5753514 L1.16724058,0.5753514 C1.16724058,0.264040373 0.90009045,0 0.583620292,0 L0.583620292,0 C0.268520134,0 0,0.264040373 0,0.5753514 L0,0.5753514 Z" id="path-33"></path>
    </defs>
    <g id="Comprehensive-Policy" stroke="none" stroke-width="1" fill="none" fill-rule="evenodd">
        <g id="Group" transform="translate(6.831093, 13.000000)">
            <g id="two-wheeler-comprehensive-insurance-policy-132x108-(1)" transform="translate(66.409250, 0.000000)" fill-rule="nonzero">
                <g id="Group-19">
                    <path d="M25.4812054,1.54841429 C25.4812054,1.54841429 29.4469092,2.3572055 38.052676,4.6024245 C46.1820521,6.72229919 49.0313564,7.57043204 49.0313564,7.57043204 C49.0123731,7.62624229 51.844502,39.2862092 25.4812054,54.5461962 C-2.57341355,39.2862092 1.98710048,7.73237326 1.93105452,7.57043204 C1.93105452,7.57043204 4.78035884,6.72229919 12.9097349,4.6024245 C21.5164058,2.3572055 25.4812054,1.54841429 25.4812054,1.54841429" id="Fill-228-Copy" fill="#4A7F00"></path>
                    <path d="M25.4812054,1.54841429 C25.4812054,1.54841429 21.5164058,2.3572055 12.9097349,4.6024245 C4.78035884,6.72229919 1.93105452,7.57134696 1.93105452,7.57134696 C1.98710048,7.73237326 -2.57341355,39.2862092 25.4812054,54.5461962 C51.844502,39.2862092 49.0123731,7.62624229 49.0313564,7.57134696 C49.0313564,7.57134696 46.1820521,6.72229919 38.052676,4.6024245 C29.4460052,2.3572055 25.4812054,1.54841429 25.4812054,1.54841429 M25.4812054,5.68660728 C27.0161417,6.02512849 30.8064756,6.89247471 37.0537923,8.52195111 C40.770905,9.49176861 43.3815621,10.1944288 45.1081392,10.6692735 C45.0376298,18.2713618 43.0877728,38.3474991 25.4161199,49.8526454 C16.3194989,44.3118768 10.2692471,36.2010917 7.41994277,25.7151686 C5.76839487,19.6373406 5.59935302,14.1285941 5.72681238,10.7040405 C7.45158162,10.2291959 10.0983973,9.51555658 13.9086186,8.52195111 C20.1559353,6.89247471 23.9462693,6.02512849 25.4812054,5.68660728" id="Fill-232-Copy" fill="#D9D9D9"></path>
                    <path d="M3.33563861,8.74574106 C2.83212893,15.3835014 2.65314345,39.8832875 25.4584255,52.8029034 C47.2250494,39.6691957 47.7764693,14.6552234 47.5857323,8.73384708 C46.1430007,8.32670671 43.0658967,7.47765893 37.6782528,6.07233847 C30.5143135,4.20315247 26.5486098,3.32757195 25.4810247,3.09884141 C24.4134395,3.32757195 20.4486399,4.20315247 13.2847005,6.07233847 C7.84372254,7.49138276 4.76029076,8.34317531 3.33563861,8.74574106 L3.33563861,8.74574106 Z M25.5036238,56.2823525 L24.7714105,55.8834464 C-1.34148718,41.6792797 -0.143730769,13.5747003 0.40859313,7.76036988 L-2.42598057e-22,6.56365168 L1.50781713,6.11442489 C1.62533285,6.07965785 4.47463716,5.23518468 12.5353119,3.13177861 C21.0823207,0.903028186 25.0218094,0.0942369839 25.1854275,0.0603848635 L25.4810247,0 L25.7775259,0.0603848635 C25.9411439,0.0942369839 29.8797286,0.903028186 38.4267376,3.13177861 C46.4874122,5.23518468 49.3376205,6.07965785 49.4542323,6.11442489 L50.9656653,6.5645666 L50.5462245,7.78324294 C50.7866797,12.1218039 51.409513,41.286778 26.2258936,55.864233 L25.5036238,56.2823525 Z" id="Fill-233-Copy" fill="#FFFFFF"></path>
                    <polygon id="Fill-234-Copy" fill="#FFFFFF" points="36.7636288 18.1325048 33.7557408 15.0881645 22.6612276 26.3164441 18.3729685 21.9762162 15.3650804 25.0205565 19.6533395 29.3607844 22.6612276 32.4058114 25.6697941 29.3607844"></polygon>
                </g>
            </g>
            <g id="Group-62" transform="translate(0.000000, 41.000000)">
                <g id="Group-3">
                    <mask id="mask-2" fill="white">
                        <use xlink:href="#path-1"></use>
                    </mask>
                    <g id="Clip-2"></g>
                    <polygon id="Fill-1" fill="#8A96FF" mask="url(#mask-2)" points="-3.4249701 38.5120779 120.664897 38.5120779 120.664897 -3.37647536 -3.4249701 -3.37647536"></polygon>
                </g>
                <g id="Group-6" transform="translate(30.279102, 0.926505)">
                    <mask id="mask-4" fill="white">
                        <use xlink:href="#path-3"></use>
                    </mask>
                    <g id="Clip-5"></g>
                    <polygon id="Fill-4" fill="#263339" mask="url(#mask-4)" points="-3.42500171 16.5210939 78.1016841 16.5210939 78.1016841 -3.37647536 -3.42500171 -3.37647536"></polygon>
                </g>
                <g id="Group-9" transform="translate(34.778589, 1.681485)">
                    <mask id="mask-6" fill="white">
                        <use xlink:href="#path-5"></use>
                    </mask>
                    <g id="Clip-8"></g>
                    <polygon id="Fill-7" fill="#547296" mask="url(#mask-6)" points="-3.42540697 14.7416914 66.0850028 14.7416914 66.0850028 -3.37647536 -3.42540697 -3.37647536"></polygon>
                </g>
                <g id="Group-12" transform="translate(33.376673, 33.179850)">
                    <mask id="mask-8" fill="white">
                        <use xlink:href="#path-7"></use>
                    </mask>
                    <g id="Clip-11"></g>
                    <polygon id="Fill-10" fill="#1B538B" mask="url(#mask-8)" points="-3.42500171 3.928965 52.8327064 3.928965 52.8327064 -3.25347338 -3.42500171 -3.25347338"></polygon>
                </g>
                <g id="Group-15" transform="translate(0.211719, 18.858965)">
                    <mask id="mask-10" fill="white">
                        <use xlink:href="#path-9"></use>
                    </mask>
                    <g id="Clip-14"></g>
                    <polygon id="Fill-13" fill="#D2D2D2" mask="url(#mask-10)" points="-3.42502414 7.8232934 9.00088207 7.8232934 9.00088207 -3.37647536 -3.42502414 -3.37647536"></polygon>
                </g>
                <polygon id="Fill-16" fill="#263339" points="87.8928366 10.7736576 89.1970772 10.9046648 89.9622226 3.53044263 88.6579819 3.39943539"></polygon>
                <polygon id="Fill-17" fill="#1B538B" points="57.2620187 15.5932385 57.2935288 16.3124277 62.9749216 16.0645944 62.9434116 15.3467558"></polygon>
                <polygon id="Fill-18" fill="#1B538B" points="85.2819578 14.3770996 85.3134678 15.0949383 90.9948606 14.8484556 90.9633506 14.1299416"></polygon>
                <g id="Group-21" transform="translate(10.257227, 20.427676)">
                    <mask id="mask-12" fill="white">
                        <use xlink:href="#path-11"></use>
                    </mask>
                    <g id="Clip-20"></g>
                    <polygon id="Fill-19" fill="#282D27" mask="url(#mask-12)" points="-3.42500171 23.5968357 23.934597 23.5968357 23.934597 -3.37580006 -3.42500171 -3.37580006"></polygon>
                </g>
                <g id="Group-24" transform="translate(14.345309, 24.458512)">
                    <mask id="mask-14" fill="white">
                        <use xlink:href="#path-13"></use>
                    </mask>
                    <g id="Clip-23"></g>
                    <polygon id="Fill-22" fill="#90939E" mask="url(#mask-14)" points="-3.42568671 15.3109651 15.5303278 15.3109651 15.5303278 -3.37647536 -3.42568671 -3.37647536"></polygon>
                </g>
                <g id="Group-27" transform="translate(19.814352, 29.850743)">
                    <mask id="mask-16" fill="white">
                        <use xlink:href="#path-15"></use>
                    </mask>
                    <g id="Clip-26"></g>
                    <polygon id="Fill-25" fill="#282D27" mask="url(#mask-16)" points="-3.42431671 4.52717816 4.5929273 4.52717816 4.5929273 -3.37647536 -3.42431671 -3.37647536"></polygon>
                </g>
                <g id="Group-30" transform="translate(33.576197, 13.832744)">
                    <mask id="mask-18" fill="white">
                        <use xlink:href="#path-17"></use>
                    </mask>
                    <g id="Clip-29"></g>
                    <polygon id="Fill-28" fill="#1B538B" mask="url(#mask-18)" points="-3.34573056 23.2098916 4.02966813 23.2098916 4.02966813 -3.37647536 -3.34573056 -3.37647536"></polygon>
                </g>
                <polygon id="Fill-31" fill="#263339" points="65.0632136 1.62982465 63.2322077 12.0327452 67.1784947 12.0327452 68.7875605 1.46505266"></polygon>
                <g id="Group-34" transform="translate(62.839223, 0.909622)">
                    <mask id="mask-20" fill="white">
                        <use xlink:href="#path-19"></use>
                    </mask>
                    <g id="Clip-33"></g>
                    <polygon id="Fill-32" fill="#1B538B" mask="url(#mask-20)" points="-3.42500171 35.80482 7.72680386 35.80482 7.72680386 -3.37647536 -3.42500171 -3.37647536"></polygon>
                </g>
                <g id="Group-37" transform="translate(108.707531, 10.621041)">
                    <mask id="mask-22" fill="white">
                        <use xlink:href="#path-21"></use>
                    </mask>
                    <g id="Clip-36"></g>
                    <polygon id="Fill-35" fill="#1B538B" mask="url(#mask-22)" points="-3.42500171 8.91186905 11.8114609 8.91186905 11.8114609 -3.37647536 -3.42500171 -3.37647536"></polygon>
                </g>
                <g id="Group-40" transform="translate(108.590881, 12.614512)">
                    <mask id="mask-24" fill="white">
                        <use xlink:href="#path-23"></use>
                    </mask>
                    <g id="Clip-39"></g>
                    <polygon id="Fill-38" fill="#F18D1C" mask="url(#mask-24)" points="-3.42480154 8.24940459 11.9698962 8.24940459 11.9698962 -3.37580006 -3.42480154 -3.37580006"></polygon>
                </g>
                <g id="Group-43" transform="translate(90.692022, 4.510296)">
                    <mask id="mask-26" fill="white">
                        <use xlink:href="#path-25"></use>
                    </mask>
                    <g id="Clip-42"></g>
                    <polygon id="Fill-41" fill="#263339" mask="url(#mask-26)" points="-3.42500171 9.3163708 11.6703508 9.3163708 11.6703508 -3.37580006 -3.42500171 -3.37580006"></polygon>
                </g>
                <g id="Group-46" transform="translate(82.163768, 4.529204)">
                    <mask id="mask-28" fill="white">
                        <use xlink:href="#path-27"></use>
                    </mask>
                    <g id="Clip-45"></g>
                    <polygon id="Fill-44" fill="#1B538B" mask="url(#mask-28)" points="-3.42500171 32.1845631 16.8188134 32.1845631 16.8188134 -3.37647536 -3.42500171 -3.37647536"></polygon>
                </g>
                <g id="Group-49" transform="translate(84.558529, 20.204153)">
                    <mask id="mask-30" fill="white">
                        <use xlink:href="#path-29"></use>
                    </mask>
                    <g id="Clip-48"></g>
                    <polygon id="Fill-47" fill="#282D27" mask="url(#mask-30)" points="-3.42431671 23.5961604 23.935967 23.5961604 23.935967 -3.37647536 -3.42431671 -3.37647536"></polygon>
                </g>
                <g id="Group-52" transform="translate(88.647296, 24.234314)">
                    <mask id="mask-32" fill="white">
                        <use xlink:href="#path-31"></use>
                    </mask>
                    <g id="Clip-51"></g>
                    <polygon id="Fill-50" fill="#90939E" mask="url(#mask-32)" points="-3.42431671 15.3109651 15.5316978 15.3109651 15.5316978 -3.37647536 -3.42431671 -3.37647536"></polygon>
                </g>
                <g id="Group-55" transform="translate(94.116339, 29.626545)">
                    <mask id="mask-34" fill="white">
                        <use xlink:href="#path-33"></use>
                    </mask>
                    <g id="Clip-54"></g>
                    <polygon id="Fill-53" fill="#282D27" mask="url(#mask-34)" points="-3.42500171 4.52717816 4.5922423 4.52717816 4.5922423 -3.37647536 -3.42500171 -3.37647536"></polygon>
                </g>
            </g>
        </g>
    </g>
</svg>