<?xml version="1.0" encoding="utf-8"?>
<!-- Generator: Adobe Illustrator 26.3.1, SVG Export Plug-In . SVG Version: 6.00 Build 0)  -->
<svg version="1.1" id="Layer_1" xmlns="http://www.w3.org/2000/svg" xmlns:xlink="http://www.w3.org/1999/xlink" x="0px" y="0px"
	 viewBox="0 0 96 96" style="enable-background:new 0 0 96 96;" xml:space="preserve">
<style type="text/css">
	.st0{fill:#6B7AFE;stroke:#000000;}
	.st1{fill:#6B7AFE;}
</style>
<g id="Page-1">
	<g id="no-claim-bonus-addon">
		<g id="Group-3" transform="translate(12.000000, 14.882431)">
			<g id="Group">
				<path id="Shape" class="st0" d="M75.5,11.4h-13h-52h-13c-0.8,0-1.4,0.7-1.4,1.4v13v14.5v13c0,0.8,0.6,1.4,1.4,1.4h13h52h13
					c0.8,0,1.4-0.6,1.4-1.4v-13V25.9v-13C77,12.1,76.3,11.4,75.5,11.4z M61.2,52H11.9C11.3,45.2,5.8,39.7-1,39V27.3
					c6.8-0.7,12.2-6.1,12.9-13h49.2c0.7,6.8,6.1,12.3,12.9,13V39C67.3,39.7,61.8,45.2,61.2,52z"/>
				<ellipse id="Oval" class="st1" cx="36.6" cy="33.1" rx="11.5" ry="11.6"/>
				<ellipse id="Oval_00000082338488765805776260000016280159399881516449_" class="st1" cx="56.8" cy="33.1" rx="4.3" ry="4.3"/>
				<ellipse id="Oval_00000041975956947297910920000018134026734532677002_" class="st1" cx="16.3" cy="33.1" rx="4.3" ry="4.3"/>
				<path id="Shape_00000040534483452172209480000005363734111011106692_" d="M53.8,60.8c0-0.1,0-0.2-0.1-0.3c0-0.1-0.1-0.1-0.1-0.2
					c-0.1-0.1-0.1-0.2-0.2-0.3c0,0,0,0,0-0.1c0,0-0.1-0.1-0.2-0.1c-0.1-0.1-0.2-0.1-0.3-0.2c-0.1,0-0.2-0.1-0.3-0.1
					c-0.1,0-0.1,0-0.2,0L46,59.2c-0.8,0-1.5,0.6-1.5,1.3c-0.1,0.8,0.5,1.5,1.3,1.5l3.3,0.2c-3.6,2.9-7.9,4.6-12.5,4.6
					c-5.6,0-10.8-2.4-14.8-6.8c-0.5-0.6-1.4-0.6-2-0.1c-0.6,0.5-0.6,1.5-0.1,2c4.5,5,10.5,7.7,16.9,7.7c5.2,0,10.2-1.9,14.3-5.3
					l-0.1,2.9c0,0.8,0.6,1.5,1.4,1.5c0,0,0,0,0,0c0.8,0,1.4-0.6,1.4-1.4l0.2-6.3c0,0,0,0,0-0.1C53.9,61,53.8,60.9,53.8,60.8z"/>
				<path id="Shape_00000098917882627139744130000004414944086712378779_" d="M19.3,5.4c0,0.1,0,0.2,0.1,0.3c0,0.1,0.1,0.1,0.1,0.2
					c0.1,0.1,0.1,0.2,0.2,0.3c0,0,0,0,0,0.1c0,0,0.1,0.1,0.2,0.1c0.1,0.1,0.2,0.1,0.3,0.2c0.1,0,0.2,0.1,0.3,0.1c0.1,0,0.1,0,0.2,0
					L27.2,7c0,0,0.1,0,0.1,0c0.8,0,1.4-0.6,1.4-1.4c0.1-0.8-0.5-1.5-1.3-1.5l-3.3-0.2C27.7,1,32-0.7,36.6-0.7
					c5.6,0,10.8,2.4,14.8,6.8c0.3,0.3,0.7,0.5,1.1,0.5c0.3,0,0.7-0.1,1-0.4c0.6-0.5,0.6-1.5,0.1-2C49-0.8,43-3.6,36.6-3.6
					c-5.2,0-10.2,1.9-14.3,5.3l0.1-2.9c0-0.8-0.6-1.5-1.4-1.5c-0.8,0-1.5,0.6-1.5,1.4l-0.2,6.3c0,0,0,0,0,0.1
					C19.2,5.2,19.3,5.3,19.3,5.4z"/>
			</g>
		</g>
	</g>
</g>
</svg>
