<?xml version="1.0" encoding="utf-8"?>
<!-- Generator: Adobe Illustrator 26.3.1, SVG Export Plug-In . SVG Version: 6.00 Build 0)  -->
<svg version="1.1" id="Layer_1" xmlns="http://www.w3.org/2000/svg" xmlns:xlink="http://www.w3.org/1999/xlink" x="0px" y="0px"
	 viewBox="0 0 96 96" style="enable-background:new 0 0 96 96;" xml:space="preserve">
<style type="text/css">
	.st0{fill-rule:evenodd;clip-rule:evenodd;fill:#6B7AFE;}
	.st1{fill:none;stroke:#424242;stroke-width:1.5;stroke-linecap:round;stroke-linejoin:round;}
	.st2{fill-rule:evenodd;clip-rule:evenodd;fill:#FDFEFF;}
	.st3{fill:none;stroke:#424242;stroke-width:0.605;stroke-linecap:round;stroke-linejoin:round;}
	.st4{fill:none;stroke:#424242;stroke-linecap:round;stroke-linejoin:round;}
	.st5{fill-rule:evenodd;clip-rule:evenodd;fill:#FFFFFF;}
</style>
<g id="Page-1">
	<g id="Car_insurance-LP-Copy" transform="translate(-120.000000, -7140.000000)">
		<g id="Engine-Protection-1" transform="translate(113.000000, 7121.142857)">
			<g id="Group-12">
				<g id="Group-6">
					<g id="Group-39" transform="translate(8.571429, 20.571429)">
						<g id="Group-37">
							<path id="Fill-1" class="st0" d="M20.6,65.1h-2.9c-1,0-1.9-0.5-2.4-1.3l-3.1-5.1c-1-1.6-1.5-3.5-1.5-5.4V34.3l8.3-0.5
								c1.8-0.1,3.4-1,4.4-2.5l2-3c0.4-0.6,1.1-1,1.8-1h32.4c0.6,0,1.2,0.3,1.6,0.8l3.6,4.2c1.1,1.3,2.6,2,4.3,2h1.1
								c1.3,0,2.4,1.1,2.4,2.4v36.5c0,1.4-1.1,2.5-2.5,2.5H36.3c-1.1,0-2.1-0.4-2.9-1.1l-9.8-8.3C22.7,65.5,21.7,65.1,20.6,65.1"/>
							<path id="Stroke-3" class="st1" d="M20.6,65.1h-2.9c-1,0-1.9-0.5-2.4-1.3l-3.1-5.1c-1-1.6-1.5-3.5-1.5-5.4V34.3l8.3-0.5
								c1.8-0.1,3.4-1,4.4-2.5l2-3c0.4-0.6,1.1-1,1.8-1h32.4c0.6,0,1.2,0.3,1.6,0.8l3.6,4.2c1.1,1.3,2.6,2,4.3,2h1.1
								c1.3,0,2.4,1.1,2.4,2.4v36.5c0,1.4-1.1,2.5-2.5,2.5H36.3c-1.1,0-2.1-0.4-2.9-1.1l-9.8-8.3C22.7,65.5,21.7,65.1,20.6,65.1z"/>
							<path id="Fill-5" class="st2" d="M45.2,40.9c-0.7-0.8-1.6-1.6-2.6-2.1c-0.3-0.2-0.6-0.3-0.8-0.4c-3.3-1.2-7.1-0.3-9.5,2.5
								c-2.2,2.5-2.7,5.9-1.5,8.8c0.2,0.6,0.8,1.4,1.3,1.9c0.5,0.7,2.1,1.9,2.3,2l19.1,11.1c1.6,0.9,3.5,1,5.1,0
								c0.4-0.3,0.9-0.6,1.2-1c0.1-0.1,0.2-0.2,0.3-0.3c1.4-1.9,1.2-4.6-0.4-6.4L45.2,40.9z"/>
							<path id="Stroke-7" class="st1" d="M45.8,40.3l14.4,16.1c1.9,2.1,2.1,5.2,0.5,7.4c-0.1,0.1-0.2,0.2-0.3,0.4
								c-0.4,0.5-0.9,0.9-1.4,1.2c-1.8,1.1-4.1,1.1-5.9,0L33.9,54.2c-0.4-0.2-2-1.6-2.5-2.1c-0.7-0.8-1.2-1.5-1.4-2.2
								c-1.3-3.2-0.7-6.9,1.6-9.6c2.6-3,6.7-4,10.4-2.7c0.3,0.1,0.6,0.3,0.9,0.4C44,38.7,44.9,39.4,45.8,40.3L45.8,40.3z"/>
							<path id="Stroke-11" class="st1" d="M43.7,50.8c-2.2,2.6-6.2,2.9-8.8,0.7c-2.6-2.2-2.9-6.2-0.7-8.8c2.2-2.6,6.2-2.9,8.8-0.7
								C45.6,44.2,45.9,48.1,43.7,50.8z"/>
							<path id="Stroke-13" class="st3" d="M40.1,47.7c-0.7,0.8-1.9,0.9-2.8,0.2c-0.8-0.7-0.9-1.9-0.2-2.8c0.7-0.8,1.9-0.9,2.8-0.2
								C40.7,45.6,40.8,46.8,40.1,47.7z"/>
							<path id="Stroke-17" class="st1" d="M57.6,61.7c-1.1,1.2-2.9,1.4-4.2,0.3c-1.2-1.1-1.4-2.9-0.3-4.2c1.1-1.2,2.9-1.4,4.2-0.3
								C58.5,58.6,58.6,60.5,57.6,61.7z"/>
							<path id="Stroke-19" class="st1" d="M87.4,35.4v28.1c0,0.9-0.7,1.6-1.6,1.6h-8c-0.7,0-1.2-0.5-1.2-1.2v-4.1
								c0-0.4-0.3-0.7-0.7-0.7h-3.4v-19h3.4c0.4,0,0.7-0.3,0.7-0.7V35c0-0.7,0.5-1.2,1.2-1.2h8C86.6,33.8,87.4,34.5,87.4,35.4z"/>
							<path id="Stroke-21" class="st4" d="M19.1,33.8v31.3"/>
							<path id="Stroke-23" class="st1" d="M34.4,27.3v-1.7c0-0.6-0.5-1.2-1.2-1.2h-3c-0.6,0-1-0.5-1-1v-2.8c0-1.6,1.3-3,3-3h24.5
								c1.6,0,3,1.3,3,3v2.8c0,0.6-0.5,1-1,1h-2.9c-0.7,0-1.3,0.6-1.3,1.3v1.6"/>
							<g id="Group-28" transform="translate(23.895772, 3.501975)">
								<path id="Fill-25" class="st5" d="M5.3,17.9h30.4"/>
								<path id="Stroke-27" class="st1" d="M5.3,17.9h30.4"/>
							</g>
							<path id="Stroke-29" class="st1" d="M81.7,65.1V34.1"/>
							<path id="Stroke-31" class="st1" d="M10.2,52.1H9.1c-0.4,0-0.7,0.3-0.7,0.7v2c0,0.4-0.3,0.7-0.7,0.7H5.8
								c-1.1,0-1.9-0.9-1.9-1.9V37.8c0-1.1,0.9-1.9,1.9-1.9h1.8c0.4,0,0.7,0.3,0.7,0.7v1.9c0,0.5,0.4,0.8,0.8,0.8h1"/>
						</g>
					</g>
				</g>
			</g>
		</g>
	</g>
</g>
</svg>
