<?xml version="1.0" encoding="utf-8"?>
<!-- Generator: Adobe Illustrator 26.3.1, SVG Export Plug-In . SVG Version: 6.00 Build 0)  -->
<svg version="1.1" id="Layer_1" xmlns="http://www.w3.org/2000/svg" xmlns:xlink="http://www.w3.org/1999/xlink" x="0px" y="0px"
	 viewBox="0 0 96 96" style="enable-background:new 0 0 96 96;" xml:space="preserve">
<style type="text/css">
	.st0{fill:#1D1D1B;stroke:#FFFFFF;}
	.st1{fill:#6B7AFE;}
</style>
<g id="Group-16" transform="translate(14.769250, 14.879666)">
	<g id="Group-3" transform="translate(0.000000, -0.000000)">
		<path id="Fill-1" class="st0" d="M33.1,76.2c0.8,0,1.6,0.2,2,0c0.8-0.4,1.4-1.1,2-1.7c-0.7-0.6-1.3-1.4-2-1.8
			c-0.4-0.3-1.2-0.1-1.8-0.1c-1.5,0-3.5-0.4-3.5,1.8C29.8,76.6,31.9,76.1,33.1,76.2z M64.9,39.1c0-4.1,0-8.3,0-12.4
			c0-1.2-0.1-2.4-1.6-2.5c-1.5-0.1-2,1.1-2,2.4c0,8.3,0,16.5,0,24.8c0,1.3,0.3,2.3,1.8,2.3c1.5,0,1.8-1,1.8-2.3
			C64.9,47.4,64.9,43.2,64.9,39.1z M2,39.1c0,4.1,0,8.3,0,12.4c0,1.3,0.2,2.3,1.8,2.3c1.5,0,1.9-1.1,1.9-2.3c0-8.3,0-16.5,0-24.8
			c0-1.4-0.5-2.5-2-2.5c-1.5,0-1.6,1.2-1.6,2.5C2,30.8,2,34.9,2,39.1z M69,28v22c4.7,0.5,7.1-1.6,7.1-6.1c0-3.2,0-6.4,0-9.6
			C76.2,29.7,73.8,27.6,69,28z M-2.1,28c-4.8-0.4-7.2,1.7-7.2,6.3c0,3.3,0,6.7,0,10c0,4.2,3,6.5,7.2,5.6V28z M58,2.4
			C50.8-5.9,42-9.9,31.3-9.1C22.4-8.5,14.8-4.8,9,2.5c3,1.5,4.9-0.2,6.9-1.7c7.1-5.5,15-7.5,23.9-5.5c4.4,1,8.3,2.9,11.7,5.8
			C53.2,2.5,55.1,4,58,2.4z M64.8,20.4c0.4-3.9-1.6-10.6-4.6-14.8C55.7,7.9,52,6.6,48.4,3.4c-8.2-7.1-22.1-6.9-30.3,0.2
			c-4,3.5-6.4,3.9-11.5,2C3.8,10.1,2.2,15,2,20.4c0.7,0,1.3,0,1.9,0c3,0.1,5.4,2.3,5.4,5.3c0.1,8.8,0,17.6,0,26.4
			c0,2.6-1.6,4.4-4,5.1c-2.3,0.7-4.8-0.1-6.1-2.2c-0.6-1-1.3-1.2-2.4-1.3c-6.2-0.4-9.6-3.9-9.7-10.1c-0.1-3.3-0.1-6.5,0-9.8
			c0.2-6,3.6-9.5,9.6-9.9C-3,24-2.6,24-2.1,24C-2.7,0.9,16.5-13.1,33.8-13.1c16.7,0,35.9,14.4,35.3,36.9c0.1,0.1,0.2,0.2,0.3,0.2
			C76.8,24.5,80,27.8,80,35.2c0,2.9,0.1,5.9,0,8.8c-0.2,6-3.4,9.4-9.3,9.9c-1.5,0.1-2,0.5-2.2,2c-1.4,10.9-11.6,20-22.5,20.3
			c-0.7,0-1.5,0.1-2.2,0c-1.8-0.1-3.3,0-4.4,1.9c-0.5,0.8-1.8,1.5-2.8,1.6c-2,0.3-4.1,0.3-6.2,0c-2.8-0.4-4.5-2.9-4.4-5.8
			c0.2-2.7,2.4-4.9,5.1-5c1.5-0.1,2.9,0,4.4,0c1.9,0,3.4,0.8,4.4,2.4c0.6,1.1,1.4,1.3,2.6,1.3c9.6,0.2,16.8-3.6,21-12.5
			c0.3-0.5,0.5-1.1,0.6-1.7c0.1-0.2,0-0.4,0-0.6c-0.8-0.1-1.6-0.2-2.3-0.4c-2.4-0.7-4-2.6-4-5.1c0-8.8,0-17.6,0-26.4
			c0-3.1,2.4-5.3,5.5-5.4C63.7,20.4,64.2,20.4,64.8,20.4z"/>
	</g>
	<path id="Fill-4" class="st0" d="M48.7,30.9l-0.3,0c0-2.1-0.1-4.3,0-6.4c0.1-1.2-0.4-1.7-1.6-2c-4-1.1-7.9-2.3-11.9-3.3
		c-0.9-0.2-1.9-0.3-2.7,0c-4.1,1.1-8.1,2.3-12.1,3.4c-1.1,0.3-1.5,0.7-1.5,1.9c0.1,5.1,0.1,10.1,0.3,15.2
		c0.4,7.6,6.2,15.1,13.4,17.6c0.7,0.3,1.7,0.3,2.5,0c6.7-2.6,11.2-7.5,12.8-14.5C48.4,38.8,48.3,34.8,48.7,30.9 M52.6,30.1
		c-0.5,4.7-0.5,9.6-1.7,14.2c-2.2,8.7-8.3,14-16.6,16.8c-0.6,0.2-1.3,0-1.9-0.2c-10.8-3.7-17.4-12.7-17.5-24.2c0-4.9,0-9.7,0-14.6
		c0-1.6,0.6-2.4,2.1-2.9c5.2-1.4,10.4-2.9,15.6-4.3c0.6-0.2,1.3-0.2,1.9,0c5.1,1.4,10.2,2.9,15.4,4.3c1.7,0.5,2.4,1.4,2.3,3.2
		c-0.1,2.5,0,5.1,0,7.6C52.2,30.1,52.4,30.1,52.6,30.1"/>
	<path id="Fill-6" class="st1" d="M58,2.4C55.1,4,53.2,2.5,51.4,1C48-1.9,44.1-3.8,39.7-4.8c-8.8-2-16.8,0-23.9,5.5
		C13.9,2.3,12,4,9,2.5c5.8-7.3,13.4-11,22.4-11.6C42-9.9,50.8-5.9,58,2.4"/>
	<path id="Fill-12" class="st1" d="M30.7,38.8c-1-1-2.1-1.9-3.1-3c-1-1-2.4-1.4-3.2-0.2c-0.5,0.6-0.3,2.2,0.3,2.9
		c1.3,1.6,2.9,3.1,4.6,4.3c0.7,0.5,2.6,0.7,3.1,0.3c3.7-3.2,7.3-6.5,10.7-9.9c0.4-0.4,0.4-2-0.1-2.3c-0.6-0.5-1.9-0.4-2.8-0.3
		c-0.6,0.1-1.1,0.9-1.7,1.3C36,34.1,33.5,36.4,30.7,38.8z M49.8,30.4c-0.4,4.2-0.3,8.5-1.2,12.5c-1.7,7.5-6.5,12.7-13.7,15.5
		c-0.8,0.3-1.8,0.3-2.6,0C24.6,55.9,18.4,47.8,18,39.7c-0.3-5.4-0.2-10.9-0.3-16.3c0-1.3,0.5-1.7,1.6-2c4.3-1.2,8.6-2.5,12.9-3.6
		c0.9-0.2,2-0.2,2.9,0c4.3,1.1,8.5,2.4,12.7,3.5c1.3,0.3,1.7,0.9,1.7,2.2c-0.1,2.3,0,4.6,0,6.9L49.8,30.4z"/>
</g>
</svg>
