<?xml version="1.0" encoding="utf-8"?>
<!-- Generator: Adobe Illustrator 26.3.1, SVG Export Plug-In . SVG Version: 6.00 Build 0)  -->
<svg version="1.1" id="Layer_1" xmlns="http://www.w3.org/2000/svg" xmlns:xlink="http://www.w3.org/1999/xlink" x="0px" y="0px"
	 viewBox="0 0 96 96" style="enable-background:new 0 0 96 96;" xml:space="preserve">
<style type="text/css">
	.st0{fill-rule:evenodd;clip-rule:evenodd;fill:#6B7AFE;}
	.st1{fill:none;stroke:#1D1D1B;stroke-width:2.3256;}
	.st2{fill-rule:evenodd;clip-rule:evenodd;fill:#FEFEFE;}
	.st3{fill-rule:evenodd;clip-rule:evenodd;fill:#1D1D1B;}
</style>
<g id="Page-1">
	<g id="Car_insurance-LP-Copy" transform="translate(-125.000000, -7284.000000)">
		<g id="Zero-Dep" transform="translate(113.000000, 7273.285714)">
			<g>
				<g id="Zero-depreceation" transform="translate(13.732174, 11.102609)">
					<polygon id="Fill-1" class="st0" points="6.9,88.8 18.7,88.8 18.7,24.1 6.9,24.1 					"/>
					<polygon id="Stroke-2" class="st1" points="6.9,88.8 18.7,88.8 18.7,24.1 6.9,24.1 					"/>
					<polygon id="Fill-4" class="st2" points="25.5,88.8 37.3,88.8 37.3,51 25.5,51 					"/>
					<polygon id="Stroke-5" class="st1" points="25.5,88.8 37.3,88.8 37.3,51 25.5,51 					"/>
					<polygon id="Fill-7" class="st0" points="44.1,88.8 55.9,88.8 55.9,39.1 44.1,39.1 					"/>
					<polygon id="Stroke-8" class="st1" points="44.1,88.8 55.9,88.8 55.9,39.1 44.1,39.1 					"/>
					<polygon id="Fill-10" class="st2" points="62.7,88.8 74.4,88.8 74.4,65.5 62.7,65.5 					"/>
					<g id="Group-14" transform="translate(2.426713, 0.656426)">
						<polygon id="Stroke-11" class="st1" points="60.2,88.2 72,88.2 72,64.9 60.2,64.9 						"/>
						<polyline id="Stroke-13" class="st1" points="7.1,5.8 35.7,25.8 53.5,14.9 82.5,36.5 						"/>
					</g>
					<polygon id="Fill-15" class="st3" points="84.3,36.6 77.7,37.6 80.9,40 87.5,39.1 86.6,32.4 83.3,30 					"/>
				</g>
			</g>
		</g>
	</g>
</g>
</svg>
