<?xml version="1.0" encoding="utf-8"?>
<!-- Generator: Adobe Illustrator 26.3.1, SVG Export Plug-In . SVG Version: 6.00 Build 0)  -->
<svg version="1.1" id="Layer_1" xmlns="http://www.w3.org/2000/svg" xmlns:xlink="http://www.w3.org/1999/xlink" x="0px" y="0px"
	 viewBox="0 0 96 96" style="enable-background:new 0 0 96 96;" xml:space="preserve">
<style type="text/css">
	.st0{fill:#6B7AFE;stroke:#1D1D1B;}
	.st1{fill:#1D1D1B;stroke:#1D1D1B;stroke-width:0.25;}
</style>
<g id="Page-1">
	<g id="personal-accident-cover">
		<circle id="Oval" class="st0" cx="47.3" cy="10.6" r="6.8"/>
		<path id="Shape" class="st1" d="M47.3,84V63h12.1v21c0,3.3-2.6,6-6,6C50.1,90,47.3,87.3,47.3,84z M48.2,64v20
			c0,2.8,2.2,5.1,5.1,5.1c2.8,0,5.1-2.2,5.1-5.1V64H48.2z"/>
		<path id="Shape_00000175315555559586307990000017279730998033554560_" class="st1" d="M50.4,89.3c-0.3,0-0.4-0.1-0.4-0.4
			c0-0.3,0.1-0.6,0.4-0.6l7.1-1.2c0.3,0,0.6,0.1,0.6,0.4c0,0.3-0.1,0.6-0.4,0.6L50.4,89.3C50.5,89.3,50.4,89.3,50.4,89.3z M48,86.2
			c-0.3,0-0.4-0.1-0.4-0.4c0-0.3,0.1-0.6,0.4-0.6l10.8-1.8c0.3,0,0.6,0.1,0.6,0.4c0,0.3-0.1,0.6-0.4,0.6L48,86.2L48,86.2z
			 M47.7,79.4c-0.3,0-0.4-0.1-0.4-0.4c0-0.3,0.1-0.6,0.4-0.6l11.1-1.8c0.3,0,0.6,0.1,0.6,0.4c0,0.3-0.1,0.6-0.4,0.6L47.7,79.4
			L47.7,79.4z M47.7,82.9c-0.3,0-0.4-0.1-0.4-0.4c0-0.3,0.1-0.6,0.4-0.6l11.1-1.8c0.3,0,0.6,0.1,0.6,0.4c0,0.3-0.1,0.6-0.4,0.6
			L47.7,82.9L47.7,82.9z M47.7,76.1c-0.3,0-0.4-0.1-0.4-0.4c0-0.3,0.1-0.6,0.4-0.6l11.1-1.8c0.3,0,0.6,0.1,0.6,0.4
			c0,0.3-0.1,0.6-0.4,0.6L47.7,76.1L47.7,76.1z M47.7,72.6c-0.3,0-0.4-0.1-0.4-0.4c0-0.3,0.1-0.6,0.4-0.6l11.1-1.8
			c0.3,0,0.6,0.1,0.6,0.4c0,0.3-0.1,0.6-0.4,0.6L47.7,72.6L47.7,72.6z M47.7,69.3c-0.3,0-0.4-0.1-0.4-0.4c0-0.3,0.1-0.6,0.4-0.6
			l11.1-1.8c0.3,0,0.6,0.1,0.6,0.4c0,0.3-0.1,0.6-0.4,0.6L47.7,69.3L47.7,69.3z M47.7,65.8c-0.3,0-0.4-0.1-0.4-0.4
			c0-0.3,0.1-0.6,0.4-0.6L58.4,63c0.3,0,0.6,0.1,0.6,0.4c0,0.3-0.1,0.6-0.4,0.6L47.7,65.8L47.7,65.8z"/>
		<path id="Path" class="st0" d="M58.4,29.5H59c3.7,21.1,7.5,42.2,11.1,63.1l0.8-0.1c-2.1-11.5-4-23-6.1-34.5c2.8-0.6,4.6-3.2,4.2-6
			c-1.7-9-3.2-18.2-4.9-27.2c-0.6-3.3-3.5-5.7-6.7-5.7H37.1c-3.3,0-6.1,2.4-6.7,5.7c-1.7,9-3.2,18.2-4.9,27.2
			c-0.6,2.8,1.4,5.4,4.2,6c-1.9,11.5-4,23-6.1,34.5c0.3,0,0.6,0.1,0.8,0.1c3.7-21.1,7.5-42.2,11.1-63.1h0.6v58
			c0,2.8,2.4,5.1,5.1,5.1c2.8,0,5.1-2.4,5.1-5.1V53.3H48v10.3h10.3C58.4,52.2,58.4,40.8,58.4,29.5z"/>
	</g>
</g>
</svg>
